<?xml version="1.0" encoding="utf-8"?>
<!-- Generator: Adobe Illustrator 26.4.1, SVG Export Plug-In . SVG Version: 6.00 Build 0)  -->
<svg version="1.1" id="Layer_1" xmlns="http://www.w3.org/2000/svg" xmlns:xlink="http://www.w3.org/1999/xlink" x="0px" y="0px"
	 viewBox="0 0 194 194" style="enable-background:new 0 0 194 194;" xml:space="preserve">
<style type="text/css">
	.st0{clip-path:url(#SVGID_00000005955199770164409570000002455056376004878508_);}
	.st1{fill:#FFBD59;}
	.st2{fill-rule:evenodd;clip-rule:evenodd;fill:#FFE7DB;}
	.st3{fill-rule:evenodd;clip-rule:evenodd;fill:#743513;}
	.st4{clip-path:url(#SVGID_00000002374242049274806740000006699900895000972194_);}
	.st5{fill-rule:evenodd;clip-rule:evenodd;fill:#FFFFFF;}
	.st6{clip-path:url(#SVGID_00000036223206765703262670000006482996654187127958_);}
	.st7{clip-path:url(#SVGID_00000070822820074440364020000010765898732516588200_);}
	.st8{fill-rule:evenodd;clip-rule:evenodd;fill:#E5E5E5;}
	.st9{fill-rule:evenodd;clip-rule:evenodd;fill:#4E6424;}
	.st10{fill-rule:evenodd;clip-rule:evenodd;fill:#3F5415;}
	.st11{fill-rule:evenodd;clip-rule:evenodd;fill:#627837;}
	.st12{fill-rule:evenodd;clip-rule:evenodd;fill:#DB9F47;}
	.st13{clip-path:url(#SVGID_00000074437644314412611810000004416458478445406102_);}
	.st14{fill-rule:evenodd;clip-rule:evenodd;fill:#FDC3AB;}
	.st15{fill-rule:evenodd;clip-rule:evenodd;fill:#F9BA61;}
	.st16{fill-rule:evenodd;clip-rule:evenodd;fill:#BC832B;}
	.st17{fill-rule:evenodd;clip-rule:evenodd;fill:#FFD4C3;}
	.st18{clip-path:url(#SVGID_00000137826223408168533840000005286342316699862182_);}
	.st19{fill-rule:evenodd;clip-rule:evenodd;fill:#FFA580;}
	.st20{clip-path:url(#SVGID_00000010281157047271119600000008663382164002883493_);}
	.st21{clip-path:url(#SVGID_00000146489250721581207370000002679214646210343081_);}
	.st22{fill-rule:evenodd;clip-rule:evenodd;fill:#4C1300;}
	.st23{fill-rule:evenodd;clip-rule:evenodd;fill:#FFF5E9;}
	.st24{fill-rule:evenodd;clip-rule:evenodd;fill:#FAD0C4;}
	.st25{clip-path:url(#SVGID_00000155861558089008869600000005190130698043489932_);}
	.st26{fill-rule:evenodd;clip-rule:evenodd;fill:#FFF8F8;}
	.st27{fill-rule:evenodd;clip-rule:evenodd;fill:#EBE2E2;}
	.st28{clip-path:url(#SVGID_00000160152962609397084540000004424066016047430574_);}
	.st29{fill-rule:evenodd;clip-rule:evenodd;fill:#D6682B;}
	.st30{clip-path:url(#SVGID_00000130630898474812341230000017944677195176178317_);}
	.st31{fill:#5271FF;}
</style>
<g>
	<defs>
		<rect id="SVGID_1_" x="8.1" y="77.7" width="37.2" height="36"/>
	</defs>
	<clipPath id="SVGID_00000153665909081066327170000000785834057784885648_">
		<use xlink:href="#SVGID_1_"  style="overflow:visible;"/>
	</clipPath>
	<g style="clip-path:url(#SVGID_00000153665909081066327170000000785834057784885648_);">
		<path class="st1" d="M26.2,77.7c2.3,0.1,4.4,0.4,6.5,1.3c1,0.4,2.1,0.6,3.1,0.6c1.6,0,2.7,0.8,3.6,1.8c2.1,2.5,3.9,5.2,4.6,8.5
			c0,0.2,0.1,0.5,0.2,0.7c1.1,2.6,0.9,5.3,0.1,7.9c-0.4,1.3-0.7,2.6-1.3,3.8c-1,2.2-2.6,4.1-4.4,5.7c-1.7,1.6-3.6,3-5.7,4
			c-2,0.9-4,1.6-6.2,1.5c-1.5-0.1-3.1-0.5-4.6-0.9c-5.7-1.6-10.1-4.9-12.7-10.3c-1.3-2.6-1.4-5.5-0.9-8.3c0.4-2,0.9-3.9,1.4-5.9
			c0.2-0.9,0.5-1.8,1.1-2.4c1.5-1.8,2.9-3.7,5-5.1c2.1-1.3,4.3-2.2,6.7-2.7C23.9,77.8,25,77.8,26.2,77.7"/>
	</g>
</g>
<path class="st2" d="M27.3,102c-0.1,0-0.3,0.1-0.3,0.2c0,0.1,0.2,0.4,0.3,0.3c0.1,0,0.2-0.1,0.2-0.2c0-0.1,0.1-0.1,0.1-0.2L27.3,102
	"/>
<path class="st3" d="M29.6,101.4c-0.1,0-0.3,0.1-0.4,0.1c-0.1,0-0.2,0.1-0.2,0.2c-0.1,0.1,0,0.4,0.1,0.5c0,0.1,0.1,0.2,0.2,0.3
	c0.1,0,0.5,0,0.6,0c0.2,0,0.3,0.1,0.5,0.1c0.2,0,0.3,0,0.5,0.1c0.1,0,0.3,0.1,0.4,0.1c0.2,0.1,0.4,0.2,0.5,0.3
	c0.1,0.1,0.3,0.1,0.4,0.2c0.1,0,0.2,0.1,0.3,0.2c0,0,0,0,0,0c0.1-0.1,0.1-0.6,0-0.7c0-0.4,0-0.7-0.3-1c-0.4-0.4-1.2-0.5-1.5-1.1
	L29.6,101.4"/>
<g>
	<defs>
		<rect id="SVGID_00000112603839761960708800000010671506555657813942_" x="23.2" y="101.2" width="8.5" height="10.1"/>
	</defs>
	<clipPath id="SVGID_00000098211036394632125370000001845226123166190224_">
		<use xlink:href="#SVGID_00000112603839761960708800000010671506555657813942_"  style="overflow:visible;"/>
	</clipPath>
	<g style="clip-path:url(#SVGID_00000098211036394632125370000001845226123166190224_);">
		<path class="st5" d="M27.2,102.6c0.2-0.4,0.7-0.8,1.1-0.9c0.1-0.1,0.4-0.2,0.5-0.2c0.1,0,0.1,0.2,0.2,0.2c0.1,0.2,0.2,0.4,0.3,0.6
			c0,0,0,0.1,0,0.2l0,0c0.1,0,0.1,0,0.2,0c0.1,0,0.1,0,0.2,0.1l0.3-0.1l-0.2,2.7c0.1,0.2,0.2,1,0.6,1.7c0.5,0.9,1.4,1.5,1.4,1.7
			c0,0.6,0,0.9-0.1,1.6c0,0,0,0.3,0,0.5c-1.3,0.4-2.6,0.6-4,0.6h-0.1c-1.4,0-2.7-0.2-4-0.6c0-0.2,0-0.4,0-0.5
			c-0.1-0.5-0.1-1-0.1-1.5c0-0.3,0.8-0.6,1.3-1.4c0.4-0.7,0.6-1.8,0.7-2.1l-0.2-2.2h0c0-0.1,0-0.2,0-0.4c0,0,0-0.2,0-0.2
			c0,0,0.2,0,0.2,0c0,0,0.2,0,0.2,0c0,0,0,0.2,0,0.3c0,0.2,0,0.3,0,0.5l0.1,0l0.2,1.9l0.1,0.1c0.2,0,2.8,0,3,0l0.1-0.1l0.2-2
			c0,0-0.1,0-0.1,0c-0.1-0.1,0-0.2,0-0.3c0-0.1,0-0.1,0-0.2L27.2,102.6c0,0.1,0,0.1,0,0.1l-1.6-0.3c0-0.1-0.1-0.7,0-0.8
			c0.1-0.1,0.4,0,0.5,0c0.1,0,0.2,0,0.3,0.1C26.7,101.9,27.1,102.3,27.2,102.6"/>
	</g>
</g>
<g>
	<defs>
		<rect id="SVGID_00000105399556091577716810000014736242012950374309_" x="25.8" y="106.3" width="5.8" height="5.1"/>
	</defs>
	<clipPath id="SVGID_00000118355172106531241070000000874207898559933847_">
		<use xlink:href="#SVGID_00000105399556091577716810000014736242012950374309_"  style="overflow:visible;"/>
	</clipPath>
	<g style="clip-path:url(#SVGID_00000118355172106531241070000000874207898559933847_);">
		<g>
			<defs>
				<path id="SVGID_00000067217403180000204990000009088705038890241949_" d="M27.2,102.6c0.2-0.4,0.7-0.8,1.1-0.9
					c0.1-0.1,0.4-0.2,0.5-0.2c0.1,0,0.1,0.2,0.2,0.2c0.1,0.2,0.2,0.4,0.3,0.6c0,0,0,0.1,0,0.2l0,0c0.1,0,0.1,0,0.2,0
					c0.1,0,0.1,0,0.2,0.1l0.3-0.1l-0.2,2.7c0.1,0.2,0.2,1,0.6,1.7c0.5,0.9,1.4,1.5,1.4,1.7c0,0.6,0,0.9-0.1,1.6c0,0,0,0.3,0,0.5
					c-1.3,0.4-2.6,0.6-4,0.6h-0.1c-1.4,0-2.7-0.2-4-0.6c0-0.2,0-0.4,0-0.5c-0.1-0.5-0.1-1-0.1-1.5c0-0.3,0.8-0.6,1.3-1.4
					c0.4-0.7,0.6-1.8,0.7-2.1l-0.2-2.2h0c0-0.1,0-0.2,0-0.4c0,0,0-0.2,0-0.2c0,0,0.2,0,0.2,0c0,0,0.2,0,0.2,0c0,0,0,0.2,0,0.3
					c0,0.2,0,0.3,0,0.5l0.1,0l0.2,1.9l0.1,0.1c0.2,0,2.8,0,3,0l0.1-0.1l0.2-2c0,0-0.1,0-0.1,0c-0.1-0.1,0-0.2,0-0.3
					c0-0.1,0-0.1,0-0.2L27.2,102.6c0,0.1,0,0.1,0,0.1l-1.6-0.3c0-0.1-0.1-0.7,0-0.8c0.1-0.1,0.4,0,0.5,0c0.1,0,0.2,0,0.3,0.1
					C26.7,101.9,27.1,102.3,27.2,102.6z"/>
			</defs>
			<clipPath id="SVGID_00000093872122560485220480000007645370507966574981_">
				<use xlink:href="#SVGID_00000067217403180000204990000009088705038890241949_"  style="overflow:visible;"/>
			</clipPath>
			<g style="clip-path:url(#SVGID_00000093872122560485220480000007645370507966574981_);">
				<path class="st8" d="M26.9,111.4c0.9-0.2,2.3-0.2,3.5-0.7c0.8-0.4,0.8-1.4,0.9-2c0,0,0.1-0.5,0.2-0.4c0,0,0,0.1,0,0.1
					c0.1,0.8,0,2.4-0.3,3.2l-3.4,0.1c-0.6,0.1-1.3,0.2-1.9,0.1L26.9,111.4z M26.3,109.5c0.8,0.2,1.6,0.5,2.5,0.2
					c0.2-0.1,0.4-0.2,0.6-0.3c0.4-0.4,0.1-1.5,0-2c0-0.1-0.2-0.6-0.2-0.6h0c0,0,0,0.4,0,0.5c0,0.3,0.1,0.6,0.1,0.9
					c0.1,0.9-0.3,1.3-1.2,1.4L26.3,109.5z M26.3,107.1c0.6-0.1,1.2-0.3,1.8-0.3c0.2,0,0.4,0,0.6,0.1c0,0,0.2,0.2,0.1,0.3L26.3,107.1
					z M25.8,106.5c0.5,0,1-0.1,1.4-0.1c0.4,0,0.7-0.1,1.1-0.1c0.3,0,0.7,0,0.8,0.3L25.8,106.5"/>
			</g>
		</g>
	</g>
</g>
<path class="st9" d="M24.9,102.5c-0.3-0.1-0.5,0-0.8,0.1c-0.1,0-0.3,0.1-0.4,0.1c-0.2,0.1-0.4,0.2-0.5,0.3c-0.1,0.1-0.2,0.1-0.3,0.2
	c-0.2,0.1-0.3,0.3-0.4,0.4c-0.1,0.1-0.3,0.2-0.3,0.4c-0.1,0.2,0.2,1.2,0.1,1.2c-0.1,0-0.3-0.1-0.4-0.2c-0.1-0.1-0.1-0.3-0.2-0.4
	c-0.1-0.3-0.5-1.2-0.7-1.4c-0.2-0.2-0.9,0.3-1.1,0.4c-0.1,0.1-0.8,0.2-0.8,0.4v0c0,0.2,0.1,0.3,0.2,0.5c0.1,0.2,0,0.5,0,0.7
	c0,0.4,0,0.7,0,1.1c0,0.3,0.1,0.6,0.2,0.9c0.1,0.4,0.3,0.7,0.5,1.1c0.3,0.6,0.6,1.2,1.1,1.6c0.1,0.1,0.2,0.1,0.3,0.1
	c0.5,0,0.8-0.2,1.1-0.5c0.3-0.3,0.5-0.7,0.7-1c0.2-0.2,0.4-0.4,0.6-0.6c0.2-0.2,0.4-0.5,0.6-0.8c0.2-0.3,0.3-0.7,0.5-1.1
	c0.2-0.5,0.5-1,0.4-1.5c0,0,0-0.1,0-0.1L24.9,102.5z M29.8,102.5c-0.1,0.5,0,0.9-0.1,1.4c-0.1,0.6-0.3,1.1,0,1.6
	c0.1,0.2,0.3,0.4,0.3,0.6c0.1,0.4,0.3,0.8,0.5,1.1c0.1,0.2,0.3,0.4,0.5,0.6c0.2,0.2,0.4,0.3,0.5,0.5c0.1,0.2,0.3,0.4,0.4,0.5
	c0.1,0.1,0.1,0.3,0.2,0.4c0.2,0.3,0.8,0.6,1.2,0.5c0.2-0.1,0.4-0.2,0.5-0.4c0.7-0.6,0.9-1.4,1.2-2.2c0.2-0.6,0.4-1.2,0.5-1.8
	c0-0.3,0.1-0.6,0.2-0.9c0-0.1,0.1-0.2,0.2-0.3c0,0,0.1,0,0.1-0.1c0,0,0,0,0,0c-0.1-0.1-0.2-0.1-0.3-0.2c-0.2-0.1-0.3-0.2-0.5-0.3
	c-0.1-0.1-0.9-0.6-1-0.5c-0.2,0.1-0.3,0.6-0.4,0.8c-0.1,0.3-0.3,0.5-0.4,0.7c-0.1,0.1-0.3,0.4-0.4,0.4c-0.2,0-0.2-0.3-0.2-0.5
	c0-0.1,0.2-0.2,0.1-0.4c0-0.2-0.6-0.6-0.7-0.7c-0.3-0.2-0.6-0.4-0.9-0.5c-0.1,0-0.5,0-0.5-0.1L29.8,102.5z M27.6,102
	c-0.1,0-0.3,0.7-0.4,0.7c-0.2,0-0.1-0.4-0.4-0.6c-0.3-0.3-1-0.4-1.1-0.4c-0.1,0,0,0.9-0.2,0.9c0,0,0.1,0.8,0.1,0.8
	c0,0.1,0,0.6,0,0.7c0,0.3,0,0.7,0.1,1c0.1,0.1,0.3,0.1,0.4,0.2c0.1,0,0.2,0,0.3,0c0.4,0,0.7,0,1.1,0c0.3,0,0.7,0,1.1,0
	c0.1,0,0.3,0,0.3-0.1c0,0,0-0.5,0-0.5c0-0.2,0-0.5,0-0.7c0-0.3,0.2-1,0.2-1.2l-0.4-1.2L27.6,102"/>
<path class="st10" d="M19.2,105.4c-0.1,1.2,0.6,4.3,2.4,3.9c0.8-0.2,1.3-1.1,1.9-1.7c0.2-0.3,0.5-0.5,0.8-0.8
	c0.2-0.3,0.5-0.5,0.6-0.9c0.1-0.1,0.1-0.2,0.2-0.3c0,0,0-0.1,0.1-0.1c0,0,0,0,0,0c0,0.4-0.3,1-0.5,1.3c-0.2,0.4-0.5,0.8-0.8,1.1
	c-0.2,0.2-0.4,0.4-0.5,0.6c-0.6,0.7-1.3,2.2-2.5,1.7c-0.2-0.1-0.4-0.2-0.5-0.4c-0.2-0.3-0.3-0.7-0.5-1c-0.1-0.2-0.3-0.4-0.4-0.7
	c-0.2-0.6-0.3-1.2-0.4-1.8L19.2,105.4z M31,107.8c0.1,0.2,0.4,0.4,0.6,0.6c0.7,0.7,1.1,0.8,1.9,0.3c0.3-0.2,0.6-0.4,0.8-0.7
	c0.4-0.6,0.6-1.2,0.8-1.9c0.1-0.3,0.1-0.6,0.2-0.8c0.1-0.2,0.2-0.4,0.2-0.6c0-0.1-0.1-0.2-0.1-0.4c0-0.2,0.3-0.8,0.6-0.5
	c0.2,0.2-0.2,0.7-0.3,1c-0.1,0.1-0.1,0.3-0.1,0.4c-0.1,0.4-0.1,0.8-0.2,1.2c-0.2,0.7-0.7,1.7-1.1,2.3c-0.2,0.4-0.5,0.9-1,1
	c-0.4,0.1-1-0.1-1.3-0.4c-0.1-0.1-0.2-0.3-0.3-0.5c-0.1-0.2-0.1-0.4-0.2-0.5c-0.1-0.1-0.2-0.2-0.3-0.3c-0.2-0.1-0.3-0.3-0.4-0.4
	L31,107.8z M22.2,105.3c0.1-0.2,0.1-0.4,0.2-0.6c0.1-0.4,0.2-0.8,0.5-1.1c0.1-0.1,0.2-0.2,0.3-0.3c0,0,0.1-0.1,0.2-0.1c0,0,0,0,0,0
	c0,0,0,0-0.1,0c0,0-0.1,0-0.1,0.1c-0.1,0.1-0.2,0.1-0.4,0.2c-0.4,0.2-0.7,0.6-1,1L22.2,105.3z M25.9,105c0.6,0,2.2,0.1,2.7-0.5
	c0.3-0.3,0.3-0.9,0.4-1.4c0,0,0.1-0.5,0.1-0.5c0,0,0,0.2,0,0.2c0,0.2,0,0.4,0,0.7c0,0.2,0,0.4-0.1,0.6c0,0.2,0,0.7-0.2,0.9
	c-0.1,0.2-0.5,0.1-0.7,0.1c-0.1,0-0.2,0-0.4,0.1c-0.6,0.1-1.3,0.1-1.8-0.1L25.9,105z M31.6,103.1c0.4,0.2,0.7,0.7,0.9,1.2
	c0,0.1,0.2,0.6,0.3,0.6c0,0,0.1-0.2,0.1-0.3c0-0.1,0.2-0.4,0.1-0.5c0-0.1-0.3-0.2-0.4-0.3c-0.1-0.1-0.2-0.2-0.3-0.3
	c-0.2-0.2-0.4-0.4-0.7-0.5L31.6,103.1z M29.2,102.5c-0.1,0-0.1,0.1-0.2,0.1c-0.2,0.1-0.4,0.1-0.7,0.1c-0.2,0-0.4,0-0.6,0
	c-0.2,0-0.4,0-0.6-0.1c0,0-0.2,0-0.2,0c0,0,0.1,0,0.1,0c0.2,0,0.3-0.1,0.5-0.1c0.2-0.1,0.6-0.2,0.9-0.3c0.2-0.1,0.4-0.3,0.4-0.4
	L29.2,102.5z M25.6,102.3c0.3,0.1,0.7,0.1,1,0.1c0.1,0,0.5-0.1,0.5-0.1c0.1,0,0.1,0.2,0,0.3c-0.1,0.1-0.4,0.1-0.6,0.1L25.6,102.3"/>
<path class="st11" d="M20.7,103.4c-0.4,0.2-1,0.5-1.3,0.9c-0.1,0.1-0.2,0.3-0.2,0.5c0,0.1,0,0.1,0,0.2c0,0,0,0,0,0
	c0,0-0.1-0.1-0.1-0.1c-0.1-0.1-0.1-0.2-0.1-0.3c-0.1-0.1-0.1-0.2-0.2-0.4c0,0-0.1-0.1,0-0.1c0-0.1,0.3-0.2,0.4-0.2L20.7,103.4z
	 M32.9,104.9c0.3,0,0.8-0.3,1.1-0.6c0,0,0.3-0.2,0.2-0.3c0-0.1-0.4-0.2-0.5-0.3L32.9,104.9z M33.9,103.8c0.1,0,0.1-0.1,0.2-0.1
	c0.2-0.2,0.5-0.2,0.8-0.2c0.1,0,0.2,0.1,0.4,0.1c0,0,0.1,0,0.1,0.1c0,0,0,0,0,0c0,0,0,0,0,0c0,0,0,0,0,0c0,0-0.1-0.1-0.1-0.1
	c-0.2-0.1-0.3-0.3-0.5-0.4c-0.2-0.1-0.3-0.2-0.5-0.2L33.9,103.8z M27.4,102.4c0.1-0.1,0.1-0.1,0.2-0.2c0.2-0.2,0.4-0.4,0.7-0.5
	c0.1,0,0.3,0,0.4,0c0,0,0.2,0,0.2,0s-0.1,0-0.1,0c-0.1,0-0.1,0-0.2-0.1c-0.2,0-0.5,0-0.7,0.1L27.4,102.4z M25.7,102.4
	c0-0.3,0.1-0.4,0.4-0.5c0.1,0,0.2,0,0.3,0c0.1,0,0.1,0,0.2,0c0,0,0,0,0,0c0,0-0.2-0.1-0.2-0.1c-0.2-0.1-0.6-0.3-0.8-0.2L25.7,102.4"
	/>
<path class="st12" d="M36.4,98.7c0,0-0.4,0.9-0.7,1.3c-0.6,1.1-1.2,2.1-1.7,3.2c-0.1,0.3-0.7,1.4-1,1.5c0,0-0.1,0-0.1-0.1
	c-0.2-0.3,0.4-1.1,0.6-1.4c0.6-1.1,1.2-2.3,1.8-3.4c0.2-0.5,0.7-1.4,0.7-1.4L36.4,98.7"/>
<g>
	<defs>
		<rect id="SVGID_00000058572085660423687650000007361830067048926866_" x="34.9" y="94.2" width="4.5" height="4.6"/>
	</defs>
	<clipPath id="SVGID_00000063602635635843404130000001201384836671412411_">
		<use xlink:href="#SVGID_00000058572085660423687650000007361830067048926866_"  style="overflow:visible;"/>
	</clipPath>
	<g style="clip-path:url(#SVGID_00000063602635635843404130000001201384836671412411_);">
		<path class="st14" d="M36.5,98.4c0.9,0.7,1.2,0.1,1.6-0.8c0.2-0.4,0.4-0.8,0.7-1.2c0.1-0.2,0.5-0.9,0.5-1.1c0-0.1-0.1-0.1-0.1-0.2
			c-0.2-0.2-0.6-0.3-0.9-0.3c-0.3,0-0.6-0.1-0.9,0c-0.5,0.2-1.1,1.3-1.3,1.8c-0.1,0.2-0.5,0.9-0.5,1.2S36.5,98.4,36.5,98.4"/>
	</g>
</g>
<path class="st14" d="M35.8,98.6c0.1,0.1,0.5,0.3,0.7,0.3c0.1,0,0.2-0.3,0.3-0.4c0.1-0.1,0.2,0,0.3-0.1c0.1-0.1,0.2-0.4,0.3-0.5
	c0.1-0.1,0.1-0.3,0.2-0.4c0.1-0.2,0.3-0.5,0.4-0.7c0-0.1,0.1-0.1,0.1-0.2c0,0,0-0.1,0-0.1c-0.1-0.1-0.2-0.2-0.4-0.3
	c-0.1-0.1-0.5-0.2-0.6-0.2c-0.1,0-0.2,0.2-0.2,0.2c-0.2,0.3-0.3,0.6-0.4,0.9c-0.1,0.2-0.4,0.7-0.4,0.9c0,0.1,0.1,0.2,0.1,0.3
	C36,98.3,35.8,98.6,35.8,98.6"/>
<path class="st12" d="M18.6,99.1c-0.5,0-1.1-0.6-1.4-1.1c-0.3-0.6-0.2-1.3,0.3-1.6c0.5-0.3,1.2,0,1.5,0.6c0.3,0.5,0.4,1.4,0.1,1.9
	c0.1,0.2,0.5,0.9,0.7,1.3c0.6,1.2,1.2,2.4,1.9,3.5c0.2,0.3,0.8,1.3,0.6,1.5c0,0-0.1,0.1-0.1,0.1c-0.3,0-0.9-1.3-1-1.6
	c-0.6-1.1-1.2-2.2-1.8-3.4C19.1,100.1,18.7,99.4,18.6,99.1"/>
<path class="st5" d="M20.7,103.1c-0.4,0.5-1.8,0.3-1.8,0.3c-0.1-0.3,0.4-1.8,0.6-2c0.1-0.2,0.5-0.6,0.8-0.7c0.1,0,0.1,0,0.2,0
	c0.1,0,0.2,0.3,0.1,0.3c0,0,0,0.1-0.1,0.1c0.1,0,0.1,0,0.2,0c0.1,0,0.2,0.3,0.1,0.3c0,0,0,0.1-0.1,0.1c0,0,0.1,0,0.1,0
	c0.1,0,0.2,0.3,0.1,0.3c0,0,0,0.1-0.1,0.1c0,0,0.1,0,0.1,0c0.1,0,0.2,0.3,0.1,0.3C21.1,102.5,20.9,102.8,20.7,103.1"/>
<path class="st5" d="M34.2,102.6c0.3,0.6,1.8,0.4,1.8,0.4c0.1-0.3-0.3-1.8-0.4-2c-0.1-0.3-0.5-0.6-0.7-0.8c-0.1,0-0.1-0.1-0.2,0
	c-0.1,0-0.2,0.2-0.2,0.3c0,0,0,0.1,0.1,0.1c-0.1,0-0.1,0-0.2,0c-0.1,0-0.2,0.2-0.2,0.3c0,0,0,0.1,0.1,0.1c0,0-0.1,0-0.1,0
	c-0.1,0-0.2,0.2-0.2,0.3c0,0,0,0.1,0.1,0.1c0,0-0.1,0-0.1,0c-0.1,0-0.2,0.2-0.2,0.3C33.9,101.9,34,102.3,34.2,102.6"/>
<path class="st8" d="M19.1,103.3c0.5,0,1.2-0.5,1.5-0.8c0.1-0.1,0.2-0.2,0.3-0.3c0,0,0.1-0.1,0.1-0.1c0,0,0,0.1,0,0.2
	c0,0.2-0.1,0.3-0.1,0.5c-0.2,0.5-0.5,0.8-1,0.7L19.1,103.3z M34.3,102.8c0.6,0.1,1.1-0.2,1.2-0.8c0.1-0.2,0.1-0.4,0.1-0.6
	c0-0.1,0-0.1,0-0.2c0,0,0-0.1,0-0.1c0,0,0,0,0,0c0,0.1,0.1,0.4,0.2,0.5c0.1,0.4,0.2,0.7,0.3,1.1c0,0.1,0.1,0.4,0,0.5
	c-0.1,0.1-0.8,0.1-0.9,0L34.3,102.8"/>
<path class="st15" d="M17.9,98.7c-0.4-0.3-0.6-1.2-0.5-1.7c0.1-0.2,0.2-0.4,0.4-0.5c0.1,0,0.1-0.1,0.2-0.1c0,0,0.1,0,0.1,0
	c-0.1-0.1-0.5,0-0.6,0.1c-0.3,0.2-0.6,0.5-0.6,0.8c0,0.1,0,0.1,0,0.2c0,0.1,0,0.3,0.1,0.4c0.1,0.2,0.2,0.4,0.3,0.5L17.9,98.7"/>
<path class="st16" d="M20.9,102.9c0,0.2,0.2,0.3,0.2,0.5c0.2,0.4,0.5,0.8,0.7,1.3c0.1,0.1,0.2,0.3,0.2,0.4c0,0,0.1,0.1,0.1,0.1
	c0,0,0,0,0-0.1c0-0.1,0-0.1,0-0.2c0-0.2-0.1-0.5-0.2-0.7c-0.1-0.2-0.2-0.4-0.3-0.6c-0.2-0.3-0.4-0.6-0.6-0.9L20.9,102.9z M19,99.3
	c0,0-0.1-0.1-0.1-0.1c0-0.1-0.1-0.1-0.1-0.2c0-0.1,0-0.3,0-0.4c0-0.1,0-0.3,0-0.4c0-0.6-0.1-1.1-0.5-1.6l0.5,0.3
	c0.3,0.4,0.5,0.9,0.4,1.3c0,0.2-0.1,0.4-0.1,0.6c0,0.2,0.1,0.3,0.1,0.5c0.1,0.2,0.2,0.4,0.3,0.5c0.1,0.2,0.2,0.4,0.3,0.6
	c0,0.1,0.1,0.2,0.1,0.3c0,0.1-0.1,0.2-0.1,0.2c0,0-0.1,0.1-0.1,0.1c0,0-0.1-0.1-0.1-0.1c-0.1-0.1-0.1-0.2-0.2-0.4
	C19.3,100.1,19.2,99.7,19,99.3C19,99.3,19,99.3,19,99.3"/>
<path class="st17" d="M36.1,98.1c0-0.1,0.1-0.2,0.1-0.2c0.1-0.2,0.2-0.3,0.2-0.5c0.2-0.3,0.3-0.6,0.5-0.8c0.1-0.1,0.2-0.2,0.4-0.3
	c0.1,0,0.1,0,0.2,0c0,0,0.1,0,0.1,0c0,0-0.1-0.1-0.1-0.1c-0.1-0.1-0.5-0.2-0.6-0.1c-0.2,0.2-0.3,0.4-0.4,0.6
	c-0.2,0.3-0.4,0.7-0.6,1.1L36.1,98.1"/>
<g>
	<defs>
		<rect id="SVGID_00000119810477614753482440000008019929241618586258_" x="34.9" y="94.2" width="4.5" height="3.9"/>
	</defs>
	<clipPath id="SVGID_00000124862821949203673320000014792647440942792588_">
		<use xlink:href="#SVGID_00000119810477614753482440000008019929241618586258_"  style="overflow:visible;"/>
	</clipPath>
	<g style="clip-path:url(#SVGID_00000124862821949203673320000014792647440942792588_);">
		<path class="st17" d="M35.7,97.9c0.1-0.3,0.3-0.6,0.4-0.8c0.3-0.6,0.7-1.5,1.2-1.8C37.7,95,38,95,38.4,95c0.1,0,0.3,0,0.4,0
			c0,0,0.1,0,0.1,0c0,0-0.1-0.1-0.1-0.1c-0.1,0-0.2-0.1-0.3-0.1c-0.4-0.1-0.9-0.2-1.3,0c-0.4,0.2-0.7,0.5-0.9,0.9
			c-0.3,0.5-0.6,1.1-0.8,1.7L35.7,97.9"/>
	</g>
</g>
<path class="st19" d="M37.5,98.6c0-0.1,0-0.1,0.1-0.1c0.1-0.1,0.1-0.2,0.2-0.3c0.1-0.1,0.1-0.2,0.2-0.3c0-0.1,0.1-0.2,0.1-0.3
	c0-0.1,0.1-0.1,0.1-0.2c0-0.1,0.1-0.2,0.1-0.2c0.1-0.1,0.1-0.2,0.1-0.4c0,0,0-0.1-0.1-0.1c0,0-0.1-0.1-0.1-0.1c0,0-0.1,0.1-0.1,0.2
	c-0.1,0.2-0.2,0.4-0.3,0.7c-0.2,0.4-0.4,0.7-0.5,1.1c0,0.1-0.1,0.2-0.1,0.3c0,0,0,0.1,0,0.1c0,0,0.1,0,0.1,0c0.1,0,0.2,0,0.2,0
	L37.5,98.6"/>
<g>
	<defs>
		<rect id="SVGID_00000106138491354554388120000006227266674043054995_" x="38" y="95" width="1.4" height="3.1"/>
	</defs>
	<clipPath id="SVGID_00000123411592894335658550000003628872798068393861_">
		<use xlink:href="#SVGID_00000106138491354554388120000006227266674043054995_"  style="overflow:visible;"/>
	</clipPath>
	<g style="clip-path:url(#SVGID_00000123411592894335658550000003628872798068393861_);">
		<path class="st19" d="M38.2,96.8c0.3-0.3,0.4-0.8,0.6-1.2c0,0,0.2-0.5,0.2-0.5c0,0,0,0.1,0,0.1c0,0.1,0,0.1,0,0.2
			c0,0.2-0.1,0.4-0.1,0.6c-0.2,0.5-0.6,1-0.9,1.4L38.2,96.8"/>
	</g>
</g>
<path class="st19" d="M36.3,98.9c0.1-0.2,0.2-0.3,0.4-0.4c0,0,0.1,0,0.1,0c0,0,0,0,0,0c0,0,0,0.1-0.1,0.1c-0.1,0.1-0.2,0.3-0.3,0.3
	L36.3,98.9"/>
<g>
	<defs>
		<rect id="SVGID_00000016790315343431777990000002585363239776993973_" x="16.3" y="94.2" width="23.1" height="17"/>
	</defs>
	<clipPath id="SVGID_00000068660200686599201200000006035447192598794898_">
		<use xlink:href="#SVGID_00000016790315343431777990000002585363239776993973_"  style="overflow:visible;"/>
	</clipPath>
	<g style="clip-path:url(#SVGID_00000068660200686599201200000006035447192598794898_);">
		<path class="st22" d="M27.9,101.7c0,0,0.3-0.2,0.5-0.3c0.2-0.1,0.4,0,0.4,0c0,0,0.1,0,0.1,0c0.1,0,0.1,0.1,0.2,0.2
			c0.1,0.1,0.1,0.4,0.2,0.5c0,0.1,0.1,0.2,0.1,0.3c0,0,0,0,0.1,0c0.2,0,0.2,0,0.3,0c0.5,0,1,0.1,1.6,0.4c0.4,0.2,0.8,0.4,1.1,0.6
			c0.1,0,0.3,0.2,0.3,0.3c0.1,0.1,0.2,0.2,0.3,0.3l0.1-0.3c0,0,0.2-0.3,0.2-0.4c0-0.1,0.4-0.8,0.5-1c-0.1-0.1-0.1-0.2-0.1-0.3
			c0-0.1,0-0.2,0-0.3c0-0.1,0.1-0.2,0.2-0.2c0.1-0.1,0.1-0.2,0.1-0.3c0-0.1,0.1-0.1,0.1-0.1c0-0.1,0-0.1,0-0.2
			c0.1-0.1,0.2-0.2,0.2-0.3c0,0,0-0.1,0-0.1c0.2-0.3,0.5-0.3,0.5-0.3s0.4-0.7,0.4-0.8c0,0,0.3-0.6,0.3-0.6c0,0,0,0,0-0.1
			c0,0,0-0.1,0-0.1c0,0,0.1-0.2,0.2-0.3c-0.1,0-0.1-0.1-0.1-0.1c-0.1-0.1-0.3-0.2-0.3-0.4c0-0.1,0-0.3,0.1-0.4c0,0,0.8-1.7,0.8-1.6
			c0.1-0.2,0.2-0.3,0.3-0.5c0.2-0.3,0.4-0.6,0.7-0.6c0.3-0.1,0.7-0.1,1,0c0.4,0,0.7,0.1,1,0.4c0.1,0.1,0.1,0.2,0.2,0.3
			c0,0.1,0,0.2-0.1,0.4c-0.1,0.3-0.3,0.7-0.4,0.8c-0.2,0.4-0.5,0.8-0.7,1.2c-0.2,0.3-0.3,0.6-0.5,0.8c-0.1,0.2-0.3,0.3-0.4,0.3
			c-0.1,0-0.3,0-0.5-0.1c0,0,0,0,0,0.1c0,0.1-0.1,0.1-0.1,0.2c-0.1,0.1-0.1,0.1-0.2,0.1c0,0-0.1,0-0.1,0c-0.1,0.3-0.4,0.8-0.6,1.1
			c-0.1,0.2-0.2,0.3-0.3,0.5c0.1,0.1,0.2,0.3,0.3,0.4c0.1,0.2,0.3,1,0.4,1.6c0,0.3,0,0.5,0,0.6c0,0,0,0.1-0.1,0.1
			c0,0.1,0,0.2-0.1,0.3l-0.1,0.2c0,0,0,0,0,0c0.1,0.1,0.1,0.1,0.1,0.2c0,0,0,0.1,0,0.1c0,0.1-0.1,0.2-0.2,0.2
			c-0.1,0.1-0.2,0.4-0.3,0.6c0,0.1,0,0.4,0,0.6c-0.1,0.5-0.3,1.1-0.4,1.4c-0.2,0.7-0.5,1.4-0.9,2c-0.1,0.1-0.2,0.2-0.2,0.3
			c-0.1,0.1-0.1,0.2-0.2,0.2c-0.2,0.2-0.4,0.3-0.5,0.4c-0.2,0.1-0.4,0.1-0.7,0c0,0,0,0,0,0c-0.3-0.1-0.6-0.4-0.9-0.8
			c0,0.3,0,0.6-0.1,1.1c0,0,0,0.6,0,0.6l0,0l-0.3,0.1c0,0,0-0.4,0-0.4c0-0.1,0-0.3,0-0.3c0.1-0.6,0.1-0.9,0.1-1.5
			c0,0-0.1-0.1-0.2-0.2c-0.3-0.3-0.9-0.8-1.2-1.4c-0.3-0.5-0.4-0.9-0.5-1.3c-0.1-0.2-0.1-0.4-0.1-0.5c0,0,0-0.1,0-0.1l0.2-2.5
			c-0.1,0-0.3,0-0.3,0l-0.2,2.4c0,0,0,0.1,0,0.1l-0.1,0.1c0,0-0.1,0.1-0.1,0.1c-0.2,0-2.8,0-3,0c-0.1,0-0.1,0-0.1-0.1l-0.1-0.1
			c0,0,0,0,0-0.1l-0.2-2.5c0,0-0.1,0-0.1,0c-0.1,0-0.2,0-0.2,0l0.2,2.5c0,0,0,0.1,0,0.1c-0.1,0.2-0.3,1.4-0.8,2.1
			c-0.3,0.5-0.7,0.8-1,1.1c-0.1,0.1-0.2,0.1-0.2,0.2c0,0,0,0,0,0c0,0,0,0,0,0c0,0.5,0.1,1,0.1,1.5c0,0,0,0.1,0,0.3c0,0,0,0.3,0,0.3
			l-0.3-0.1c0,0,0,0,0,0c0-0.2,0-0.4,0-0.4c0-0.3-0.1-0.8-0.1-1.2c-0.1,0.2-0.3,0.4-0.5,0.6c-0.4,0.4-0.7,0.7-1.1,0.8l0,0
			c-0.5,0.1-0.9-0.2-1.2-0.5c0,0-0.1-0.1-0.1-0.1c0,0-0.1-0.1-0.1-0.1c-0.1-0.1-0.2-0.2-0.2-0.3c-0.4-0.7-0.6-1.4-0.7-2.1
			c-0.1-0.3-0.2-1-0.2-1.4c0-0.3,0-0.5,0.1-0.6c-0.1-0.2-0.1-0.4-0.2-0.6c0,0-0.1-0.1-0.1-0.2c0-0.1,0-0.1,0-0.1c0,0,0-0.1,0.1-0.1
			c0,0,0,0,0,0l0-0.2c0-0.1,0-0.2,0-0.4c0,0,0,0,0-0.1c0-0.1,0-0.3,0.1-0.6c0.1-0.6,0.4-1.4,0.5-1.5c0-0.1,0.1-0.1,0.2-0.2
			c-0.1-0.2-0.2-0.4-0.3-0.6c-0.2-0.3-0.5-1-0.6-1.2c-0.2,0-0.4-0.1-0.6-0.2c-0.3-0.2-0.7-0.6-0.9-0.9c-0.4-0.7-0.2-1.5,0.3-1.8
			c0.4-0.2,0.8-0.1,1.1,0c0.3,0.1,0.5,0.5,0.7,0.8c0.1,0.3,0.2,0.6,0.2,0.8c0,0.2,0,0.4,0,0.6c0,0.1-0.1,0.2-0.1,0.3
			c0.1,0.3,0.5,0.9,0.7,1.3c0.1,0.1,0.2,0.3,0.2,0.4c0,0,0,0,0.1,0c0.1,0,0.2-0.1,0.3,0c0.1,0,0.2,0.2,0.2,0.3c0,0.1,0,0.1,0,0.2
			c0.1,0,0.2,0.2,0.2,0.3c0,0.1,0,0.1,0,0.2c0.1,0.1,0.1,0.2,0.2,0.3c0,0.1,0,0.1,0,0.2c0.1,0.1,0.1,0.1,0.2,0.2c0,0.1,0,0.2,0,0.3
			c0,0,0,0.1-0.1,0.2c0.2,0.4,0.4,0.7,0.6,1.1c0,0,0.1,0.2,0.2,0.4c0.1-0.2,0.3-0.4,0.5-0.6c0.6-0.5,1.3-0.8,1.8-1
			c0.1,0,0.3-0.1,0.4-0.1c0,0,0.3-0.1,0.4-0.1c0.1,0,0.2,0,0.3,0c0,0,0,0,0,0c0-0.1,0-0.3,0-0.4c0-0.1,0-0.3,0.1-0.4
			c0.1,0,0.4,0.1,0.6,0.1c0.1,0,0.5,0.1,0.7,0.3c0.2,0.2,0.3,0.4,0.4,0.5C27.4,102.1,27.6,101.9,27.9,101.7z M24.8,102.6
			c-0.2,0-0.3,0.1-0.4,0.1c-0.4,0.2-1,0.4-1.5,0.7c-0.3,0.2-0.6,0.5-0.8,0.9c0.1,0.2,0.2,0.4,0.2,0.5c0,0.1,0.1,0.2,0.1,0.3
			c0,0.1,0,0.1,0,0.2c-0.1,0.2-0.2,0.1-0.3,0.1c0,0-0.1,0-0.1-0.1c-0.1-0.1-0.2-0.2-0.3-0.3c-0.2-0.2-0.3-0.5-0.5-0.8l-1.8,0.8
			c0,0.1-0.1,0.3,0,0.5c0,0.5,0.1,1.1,0.2,1.4c0.1,0.7,0.3,1.4,0.7,2c0.1,0.1,0.1,0.2,0.2,0.3c0,0,0,0,0,0c0,0,0.4,0.6,0.8,0.6
			c0.5,0,0.9-0.3,1.2-0.7c0.2-0.2,0.4-0.5,0.6-0.8c0.1-0.1,0-0.1,0.1-0.2c0-0.1,0.1-0.2,0.2-0.2c0,0,0.1-0.1,0.1-0.1
			c0.3-0.2,0.6-0.5,0.9-1c0.4-0.7,0.6-1.7,0.7-2L24.8,102.6z M29.1,106.5c0-0.1-0.1-0.1-0.2-0.1h-3.2c-0.1,0-0.1,0.1-0.2,0.1
			c0,0-0.3,1.1-0.2,1.9c0,0.4,0.1,0.7,0.3,0.9c0.1,0.1,0.3,0.2,0.6,0.2c0.3,0.1,0.7,0.1,1.2,0.1c0.4,0,0.8,0,1.2-0.1
			c0.2-0.1,0.4-0.1,0.6-0.2c0.2-0.2,0.3-0.5,0.3-0.9C29.4,107.6,29.1,106.5,29.1,106.5z M30,102.7l-0.2,2.4c0,0.1,0.1,0.2,0.1,0.3
			c0.1,0.3,0.2,0.8,0.5,1.3c0.3,0.5,0.8,1,1.1,1.3c0,0,0,0.1,0.1,0.1c0,0,0.1,0.1,0.1,0.2c0,0.1,0.1,0.1,0.1,0.2
			c0.1,0.1,0.1,0.2,0.2,0.3c0.1,0.2,0.5,0.7,0.9,0.8c0.4,0.1,0.7-0.2,0.9-0.4c0.2-0.2,0.3-0.4,0.4-0.5c0.2-0.2,0.3-0.5,0.4-0.7
			l0.3-0.8c0.1-0.1,0.1-0.3,0.1-0.4c0.1-0.3,0.3-0.9,0.4-1.4c0-0.1,0-0.2,0-0.3l0.1-0.2l-1.6-0.9c-0.1,0.2-0.3,0.5-0.4,0.7
			c-0.1,0.1-0.2,0.2-0.3,0.3c0,0-0.1,0-0.2,0c-0.1,0-0.2-0.1-0.2-0.1c0,0,0-0.1,0-0.2c0-0.1,0-0.2,0.1-0.3c0-0.1,0.1-0.1,0.1-0.2
			c-0.4-0.5-1-0.9-1.7-1.2C30.8,102.8,30.3,102.7,30,102.7z M28.9,106.7h-3c-0.1,0.3-0.2,1.1-0.2,1.7c0,0.2,0,0.3,0.1,0.4
			c0,0.1,0.1,0.2,0.1,0.2c0.1,0.1,0.2,0.1,0.4,0.2c0.3,0.1,0.7,0.1,1.1,0.1c0.4,0,0.8,0,1.1-0.1c0.2,0,0.3-0.1,0.4-0.2
			c0.1,0,0.1-0.1,0.1-0.2c0-0.1,0.1-0.3,0.1-0.4C29.1,107.8,28.9,107,28.9,106.7z M26.2,107.3c0.7,0,1.7-0.1,2.4,0
			c0.1,0,0.2-0.1,0.2-0.1c0-0.1-0.1-0.2-0.1-0.2c-0.7,0-1.8,0-2.4,0c-0.1,0-0.2,0.1-0.1,0.2C26.1,107.3,26.1,107.3,26.2,107.3z
			 M20.9,103c0,0-0.1,0.1-0.1,0.1c0.1,0.2,0.2,0.4,0.3,0.6c0.1,0.2,0.4,0.8,0.7,1.2c0.1,0.1,0.1,0.1,0.2,0.2c0-0.1,0-0.1,0-0.2
			c-0.1-0.4-0.4-0.9-0.6-1.1C21.3,103.6,21.1,103.3,20.9,103z M29,103c0-0.1,0-0.1,0-0.2c0,0,0-0.1,0-0.1c-0.3,0.1-0.7,0.1-1,0.1
			c-0.8,0-1.5,0-2.2-0.2c0,0,0,0,0,0c0,0,0,0,0,0.1L26,105h2.8L29,103C29,103,29,103,29,103z M20.7,103.5
			C20.7,103.5,20.7,103.5,20.7,103.5c-0.5,0.2-0.9,0.4-1.4,0.6c0,0-0.2,0.1-0.3,0.1c0,0,0,0-0.1,0l0.1,0.1c0.1,0.1,0.2,0.3,0.2,0.5
			l1.7-0.8c0-0.1-0.1-0.2-0.1-0.2C20.8,103.7,20.8,103.6,20.7,103.5z M34,102.6c-0.1,0.3-0.3,0.5-0.4,0.8c-0.1,0.2-0.4,0.7-0.5,1.1
			c0,0.1,0,0.1,0,0.2c0,0,0.1-0.1,0.1-0.2c0.3-0.4,0.6-1,0.7-1.2c0.1-0.2,0.2-0.4,0.3-0.5C34.1,102.7,34,102.7,34,102.6z
			 M34.3,103.1c-0.1,0.1-0.1,0.2-0.2,0.3c0,0.1-0.1,0.1-0.1,0.3l1.5,0.9c0.1-0.2,0.2-0.4,0.3-0.5l0.1-0.1c0,0,0,0-0.1,0
			c-0.1-0.1-0.2-0.1-0.3-0.2C35.1,103.6,34.7,103.3,34.3,103.1z M19,103.6c0,0.1,0,0.1,0,0.2l0,0.1c0.1,0,0.1,0,0.1-0.1
			c0.1-0.1,0.3-0.1,0.4-0.2C19.4,103.6,19.2,103.6,19,103.6z M35.8,103.3c-0.1,0-0.3,0-0.5,0c0.1,0.1,0.2,0.1,0.3,0.2
			c0,0,0.1,0,0.1,0.1l0-0.1C35.8,103.5,35.8,103.4,35.8,103.3z M20.3,100.9C20.3,100.9,20.3,100.9,20.3,100.9
			C20.3,100.9,20.3,100.9,20.3,100.9c-0.3,0.1-0.6,0.4-0.8,0.6c-0.1,0.1-0.3,0.9-0.5,1.4c0,0.1-0.1,0.2-0.1,0.3c0.2,0,0.5,0.1,0.9,0
			c0.2,0,0.3,0,0.4-0.1c0.1,0,0.2-0.1,0.3-0.2c0.2-0.3,0.4-0.6,0.4-0.7c0,0,0-0.1,0-0.1c0,0,0-0.1,0-0.1c0,0,0,0,0,0
			c-0.1,0-0.1,0-0.2-0.1c0-0.1,0-0.1,0-0.2c0,0,0,0,0,0c0,0,0-0.1,0-0.1c0,0,0-0.1,0-0.1c0,0,0,0,0,0c-0.1,0-0.1,0-0.2-0.1
			c0-0.1,0-0.1,0-0.2c0,0,0,0,0,0c0,0,0-0.1,0-0.1c0,0,0-0.1,0-0.1c0,0,0,0,0,0c0,0,0,0,0,0c-0.1,0-0.1,0-0.2-0.1c0-0.1,0-0.1,0-0.2
			c0,0,0,0,0.1-0.1C20.4,101,20.3,101,20.3,100.9C20.3,100.9,20.3,100.9,20.3,100.9z M34.9,100.5l-0.1,0.2c0,0,0,0,0,0c0,0,0,0,0,0
			c0,0.1,0,0.1,0,0.2s-0.1,0.1-0.2,0c0,0,0,0,0,0c0,0,0,0,0,0c0,0,0,0,0,0.1c0,0,0,0.1,0,0.1c0,0,0,0,0,0.1c0,0.1,0,0.1,0,0.2
			c0,0.1-0.1,0.1-0.2,0.1c0,0,0,0,0,0c0,0,0,0-0.1,0.1c0,0,0,0.1,0,0.1c0,0,0,0,0,0c0,0.1,0,0.1,0,0.2c0,0.1-0.1,0.1-0.2,0.1
			c0,0,0,0,0,0c0,0,0,0-0.1,0.1c0,0,0,0.1,0,0.1c0,0.1,0.2,0.4,0.4,0.7c0,0.1,0.1,0.1,0.2,0.2c0.1,0.1,0.3,0.1,0.4,0.1
			c0.3,0.1,0.7,0.1,0.9,0c0-0.1,0-0.2,0-0.3c-0.1-0.5-0.3-1.3-0.3-1.5C35.4,101,35.1,100.7,34.9,100.5z M29,102.5
			c0-0.1-0.1-0.2-0.1-0.3c0-0.1-0.1-0.2-0.1-0.4c0-0.1,0-0.1-0.1-0.1c0,0-0.1,0-0.2,0c-0.1,0-0.2,0.1-0.2,0.1
			c-0.4,0.2-0.7,0.5-0.9,0.8c0.2,0,0.4,0,0.6,0C28.3,102.6,28.7,102.6,29,102.5z M27,102.5c-0.1-0.2-0.2-0.4-0.3-0.5
			c-0.1-0.1-0.3-0.1-0.6-0.2c-0.1,0-0.2,0-0.3-0.1c0,0,0,0-0.1,0c0,0,0,0.1,0,0.1c0,0.1,0,0.3,0,0.4C26.1,102.4,26.5,102.5,27,102.5
			z M18.8,97.2C18.8,97.2,18.8,97.1,18.8,97.2c-0.3-0.6-0.9-0.9-1.3-0.6c-0.4,0.2-0.5,0.8-0.2,1.4c0.2,0.3,0.4,0.6,0.7,0.8
			c0.2,0.1,0.4,0.2,0.5,0.2c0.1,0,0.1,0,0.2,0.1c0.1,0.2,0.5,0.9,0.7,1.3c0.1,0.2,0.2,0.4,0.3,0.5c0,0,0.1-0.1,0.1-0.1
			c-0.1-0.2-0.2-0.3-0.2-0.5c-0.2-0.4-0.6-1.2-0.7-1.3c0,0,0-0.1,0-0.2c0.1-0.2,0.1-0.4,0.1-0.6c0-0.2,0-0.4-0.1-0.6
			C18.9,97.5,18.9,97.3,18.8,97.2z M35.9,99c-0.2,0.3-0.4,0.8-0.6,1.1c-0.1,0.1-0.1,0.2-0.2,0.3c0,0,0.1,0.1,0.1,0.1
			c0.1-0.1,0.1-0.3,0.2-0.4c0.2-0.3,0.4-0.8,0.5-1.1C36,99,36,99,35.9,99z M37.9,96.6L37.9,96.6c-0.1-0.1-0.2-0.2-0.3-0.3
			c-0.1-0.1-0.4-0.2-0.5-0.2c0,0,0,0,0,0c0,0,0,0.1-0.1,0.1c-0.2,0.3-0.3,0.6-0.4,0.9c0,0.1-0.2,0.3-0.3,0.5
			c-0.1,0.1-0.1,0.2-0.1,0.3c0,0,0,0.1,0,0.2c0,0.1,0,0.1,0,0.2c0,0.1-0.1,0.2-0.1,0.3c0.1,0,0.2,0.1,0.3,0.2c0.1,0,0.1,0.1,0.2,0.1
			c0,0,0,0,0-0.1c0-0.1,0.1-0.2,0.1-0.2c0,0,0.1-0.1,0.1-0.1c0,0,0.1,0,0.2-0.1c0.1-0.1,0.2-0.3,0.2-0.5c0.1-0.2,0.1-0.3,0.2-0.4
			c0.1-0.2,0.3-0.5,0.4-0.7C37.8,96.8,37.8,96.7,37.9,96.6C37.8,96.7,37.9,96.7,37.9,96.6z M37.2,98.6
			C37.2,98.6,37.2,98.6,37.2,98.6c0.2-0.1,0.3-0.2,0.4-0.3c0.1-0.2,0.2-0.4,0.4-0.7c0.2-0.4,0.4-0.8,0.7-1.2
			c0.1-0.1,0.2-0.4,0.3-0.7c0.1-0.1,0.1-0.3,0.1-0.4c0,0,0-0.1-0.1-0.1C38.8,95,38.5,95,38.2,95c-0.3,0-0.6-0.1-0.8,0
			c-0.2,0.1-0.4,0.3-0.5,0.5c-0.3,0.4-0.5,0.9-0.7,1.2c-0.1,0.1-0.2,0.4-0.4,0.7c-0.1,0.2-0.1,0.3-0.1,0.4c0,0,0,0.1,0.1,0.1
			c0-0.1,0-0.1,0.1-0.2c0.1-0.2,0.3-0.5,0.3-0.6c0.1-0.3,0.3-0.6,0.5-0.9c0-0.1,0.1-0.2,0.2-0.2c0.1-0.1,0.1-0.1,0.2-0.1
			c0.2,0,0.6,0.2,0.7,0.3c0.1,0.1,0.3,0.2,0.4,0.3c0,0.1,0.1,0.1,0.1,0.2c0,0.1-0.1,0.2-0.1,0.3c-0.1,0.2-0.3,0.5-0.4,0.7
			c-0.1,0.1-0.2,0.3-0.2,0.4C37.4,98.2,37.3,98.4,37.2,98.6"/>
	</g>
</g>
<path class="st2" d="M21.4,96.9c0-0.1-0.2-0.2-0.3-0.2c-0.3-0.1-0.6,0-0.8,0.2c-0.1,0.1-0.2,0.3-0.2,0.5c-0.1,0.3-0.1,0.7,0.1,1
	c0.1,0.2,0.4,0.3,0.6,0.3c0.4,0.1,1,0.2,1.4,0.2L21.4,96.9z M32.3,95.3c0-0.1,0.1-0.2,0.2-0.3c0.3-0.2,0.8-0.1,1.1,0.1
	c0.5,0.4,0.5,1.1,0.2,1.5c-0.3,0.4-0.9,0.7-1.3,0.8L32.3,95.3"/>
<path class="st14" d="M22.1,92.5c-0.2,0.5-0.5,1-0.6,1.6c-0.1,0.9,0,1.9,0,2.8c0,0.6,0.3,1.3,0.5,1.8c0.1,0.3,0.2,0.7,0.5,1
	c0.9,1.1,1.4,1.7,2.8,2c0.3,0,0.8,0.2,1,0.3c0.8,0.2,1.5,0.1,2.2-0.1c0.4-0.1,0.8-0.2,1.2-0.4c0.4-0.2,0.5-0.5,1.1-0.9
	c0.5-0.3,1.2-1.3,1.5-2.6c0.3-1.4-0.1-3-0.4-4.2c-0.3-0.9-0.4-2.5-0.9-2.8c-0.2-0.1-4.2,0.4-5.7,0.6C24.2,91.8,22.1,92.5,22.1,92.5"
	/>
<path class="st2" d="M32.5,94.5c-0.1-0.3-0.5-2.4-1.3-3.3c-0.9-1-5.3,0.3-7.4,1.2c-0.3,0.2-0.4,0.6-0.5,1c-0.2,0.7-0.5,1.4-0.8,2.3
	c-0.1,0.2-0.4,0.7-0.4,0.9c0,0.2,0,0.5,0,0.7c0.2,2.4,1.7,3.3,1.9,3.4c0.4,0.2,2.6,1.5,3.6,1.3c0.6-0.1,1.7-0.5,2.8-1.1
	c0.4-0.2,0.9-0.8,1.4-1.8c0.6-1.2,0.6-3.1,0.4-3.9C32.3,94.9,32.6,94.8,32.5,94.5"/>
<path class="st23" d="M28.2,101.8c0.4-0.2,0.9-0.5,1.2-0.7c0.5-0.3,1.7-1.3,2.2-2.6c0.4-1.2,0.3-2.5,0-4c-0.1-0.8-0.3-1.5-0.7-2.2
	c-0.2-0.3-0.5-0.6-0.7-0.9c0,0-0.1-0.1-0.1-0.1c0,0,0.2,0.1,0.2,0.1c0.8,0.6,1.2,1.5,1.4,2.4c0.1,0.5,0.3,1.2,0.4,1.7
	c0.2,1.4,0,3-0.6,4.1c-0.3,0.4-0.8,1-1.3,1.4c-0.6,0.4-1.9,0.9-1.9,0.9C28.3,101.8,28.2,101.8,28.2,101.8"/>
<path class="st24" d="M28.3,91.2c0.1,0.3,0.3,0.5,0.5,0.8c0.1,0.2,0.3,0.5,0.4,0.7c0.4,0.6,1,1.2,1.7,1.6c0.2,0.2,0.5,0.3,0.8,0.4
	c0.2,0.1,0.4,0.1,0.5,0.1c0.3,0,0.5,0,0.5-0.3c0-0.2-0.1-0.3-0.1-0.4c-0.3-0.6-0.8-1.1-1.3-1.5c-0.5-0.5-1-1-1.5-1.4L28.3,91.2"/>
<path class="st3" d="M21.4,96.6c0.5-0.5,0.9-1.2,1.1-1.8c0.2-0.5,0.3-1,0.5-1.5c0-0.1,0.3-1.1,0.1-1.2c-0.1,0-0.5,0.1-0.6,0.2
	c-0.5,0.2-1.1,0.4-1.6,0.5c-0.3,0.1-0.9,0.3-1.2,0.6c-0.1,0.1,0,0.9,0,1c0,0.7,0.2,1.1,0.4,1.8c0,0.1,0.3,0.5,0.3,0.5L21.4,96.6z
	 M32.4,95c-0.6-0.3-1.4-0.9-2-1.6c-0.3-0.4-0.5-0.7-0.8-1c-0.2-0.2-0.8-0.9-0.8-1.2c0-0.1,1-0.2,1.2-0.2c1-0.1,2.3,0,3.3,0.2
	c0.2,0,0.3,0.9,0.3,1c0.1,0.6-0.3,2.5-0.4,2.5C32.9,94.8,32.7,95.2,32.4,95"/>
<g>
	<defs>
		<rect id="SVGID_00000001640328400957704270000001158129466049115315_" x="16.3" y="79.9" width="20.1" height="13.5"/>
	</defs>
	<clipPath id="SVGID_00000080899885550334107240000016513158596056159399_">
		<use xlink:href="#SVGID_00000001640328400957704270000001158129466049115315_"  style="overflow:visible;"/>
	</clipPath>
	<g style="clip-path:url(#SVGID_00000080899885550334107240000016513158596056159399_);">
		<path class="st26" d="M21,80.9c0.2,0,0.4-0.1,0.5-0.1c1.4-0.1,2.6,0.2,3.6,1.2c0.1-0.2,0.2-0.4,0.3-0.6c0.7-1,2.1-1.4,3.2-0.9
			c0.4,0.1,0.7,0.4,0.9,0.6c0.1,0.1,0.3,0.3,0.4,0.4c0.2,0,0.3-0.1,0.4-0.1c0.6-0.2,1.2-0.3,1.8-0.2c1.1,0.1,1.8,0.5,2.4,1.4
			c0.1,0.2,0.4,0.6,0.5,0.9c0,0.1,0.1,0.1,0.1,0.2c0.5,1.1,0.6,2.7-0.3,3.7c-0.7,0.8-1.3,1-2.2,1.1c0.1,0.2-0.2,0.3-0.1,0.4
			c0.2,0.2,0.5,0.1,0.7,0.2c0.2,0.2,0.3,1.2,0.3,1.5c0,0.1,0.1,0.5,0,0.5c-0.2,0.1-0.5,0-0.7-0.1c-0.2,0-0.4,0-0.7-0.1
			c-0.7,0-3.7,0.1-4.2,0.2c-0.3,0.1-0.7,0.1-1,0.2c-0.5,0.1-0.9,0.1-1.4,0.2c-0.8,0.2-2,0.4-3,0.7c-1,0.3-3,1.3-3.3,1.2
			c-0.1,0-0.6-1.6-0.6-1.8c0.1-0.2,0.9-0.9,1-0.9c0.1-0.4,0.4-1.2,0.8-1.7c-1.1,0.4-2.4,0.4-3.3-0.2c-0.9-0.6-1-1.5-1-2.5
			c0,0,0,0,0,0c-0.1-0.8,0.1-1.6,0.4-2.3c0.3-0.6,0.6-1,1.1-1.5C18.9,81.5,19.9,81,21,80.9"/>
	</g>
</g>
<path class="st27" d="M25.7,91.4c-0.3,0.1-0.5,0.1-0.6,0.1c-1.3,0.3-2.6,0.8-3.9,1.3c-0.4,0.2-0.8,0.3-1.2,0.5
	c-0.1,0-0.3,0.2-0.4,0.2c-0.1-0.1-0.6-1.3-0.7-1.6l0.3-0.4c0.2,0.5,0.9,0.6,1.4,0.7c1.2,0.1,2.5-0.3,3.7-0.5
	C24.7,91.5,25.2,91.4,25.7,91.4c0.4-0.1,0.8-0.1,0.9-0.1c0,0,0,0-0.1,0c-0.1,0-0.1,0-0.2,0C26.1,91.3,25.9,91.3,25.7,91.4
	C25.7,91.4,25.7,91.4,25.7,91.4z M30.3,87.5l-0.2-0.1C30.2,87.4,30.3,87.4,30.3,87.5l0.5,0.4c0.3,0.4,1.7,0.5,1.8,0.5
	c0.3,0,0.1,0.1,0.2,0.4c0,0.1-3.4,0-3.6,0c-0.1,0-0.8,0.1-0.9,0.1c0,0,0.1,0,0.1,0c0.1,0,0.3-0.1,0.3-0.1c0.2,0,0.5-0.1,0.7-0.1
	c0.3-0.1,0.6-0.2,0.8-0.4C30.4,88,30.4,87.7,30.3,87.5z M24.4,89.4c-0.1,0-0.2,0.1-0.4,0.1c-0.3,0.1-0.6,0.2-0.9,0.3
	c-0.4,0.1-0.9,0.3-1.3,0.5c-0.6,0.2-1.3,0.4-1.9,0.6l0.8-1.5c-0.1,0.4,0.7,0.4,1,0.4c0.8,0,1.6-0.2,2.4-0.3
	C24.2,89.4,24.3,89.4,24.4,89.4c0.1,0,0.3-0.1,0.4-0.1c0.1,0,0.2,0,0.3-0.1c0.1,0,0.1,0,0.1,0C25,89.3,24.7,89.3,24.4,89.4z
	 M17.3,83.2c-0.1,0.2-0.2,0.4-0.3,0.7c-0.2,0.4-0.2,0.9-0.2,1.4c0,1.2,0.3,2,1.5,2.5c0.7,0.3,1.5,0.3,2.3,0.1
	c0.4-0.1,0.9-0.3,1.3-0.4c0,0,0.2-0.1,0.2,0c0,0-0.1,0.1-0.1,0.2c-0.2,0.2-0.4,0.5-0.7,0.8c-0.2,0.2-0.4,0.5-0.6,0.7
	c-0.3,0.2-1,0.2-1.4,0.2c-0.6,0-1.5-0.2-2-0.6c-1.3-0.9-0.9-3.5-0.4-4.9L17.3,83.2c0.2-0.3,0.3-0.5,0.5-0.8L17.3,83.2z M25.9,82.7
	c-0.2-0.3,0-1.2,0.1-1.5c0-0.1,0.1-0.3,0.2-0.4c0-0.1,0.1-0.2,0.1-0.2c0,0-0.2,0.1-0.2,0.1c-0.2,0.1-0.3,0.3-0.5,0.4
	c-0.1,0.2-0.3,0.4-0.4,0.5L25.9,82.7"/>
<g>
	<defs>
		<rect id="SVGID_00000095322585813677566070000009154711047043848586_" x="18.6" y="79.9" width="17.8" height="11.2"/>
	</defs>
	<clipPath id="SVGID_00000085208639057804634170000008692142078017319857_">
		<use xlink:href="#SVGID_00000095322585813677566070000009154711047043848586_"  style="overflow:visible;"/>
	</clipPath>
	<g style="clip-path:url(#SVGID_00000085208639057804634170000008692142078017319857_);">
		<path class="st5" d="M33.6,90.6c-0.1-0.5-0.5-0.7-1-1c-1.5-0.6-3-0.5-4.6-0.5c-0.2,0-1.7-0.1-1.8-0.2c0,0,0.1,0,0.3,0
			c0.2,0,0.4,0,0.5,0c0.6,0,1.1-0.1,1.7-0.1c1.2-0.1,3.3,0,4.7,0.2L33.6,90.6c0,0,0,0.1,0,0.1v0c0,0.1,0,0.1,0,0.2l0-0.2L33.6,90.6z
			 M30,87.3c0.7,0.4,1.5,0.6,2.3,0.5c0.6,0,1-0.2,1.5-0.5c1-0.7,1.2-1.6,1.1-2.8c-0.1-0.8-0.3-1.5-0.8-2.2c-0.5-0.6-1.1-1-1.8-1.3
			c0,0,0,0,0,0c0,0,0.1,0,0.1,0c0.1,0,0.9,0.1,1.2,0.3c0.3,0.2,0.8,0.9,1.1,1.2c0.3,0.5,0.8,1.4,0.8,2c0.1,1.2-0.2,2.8-1.4,3.4
			c-0.4,0.2-0.9,0.2-1.4,0.3c-0.6,0.1-1.2-0.1-1.7-0.3L30,87.3C30,87.3,30,87.3,30,87.3L30,87.3z M25.8,82.8c-1.2-1-2.9-1.7-4.5-1.7
			c-0.5,0-0.9,0-1.3,0.2c-0.1,0-0.5,0.2-0.6,0.2c0,0,0.1,0,0.2-0.1c0.2-0.1,0.4-0.2,0.6-0.2c0.5-0.2,0.9-0.3,1.3-0.4
			c1-0.2,2.3,0,3.2,0.7c0.3,0.3,0.6,0.6,0.9,0.9L25.8,82.8z M30.1,81.6c-0.2-0.1-0.4-0.3-0.7-0.4c-0.3-0.1-0.5-0.2-0.8-0.3
			c-0.4-0.1-0.8-0.3-1.2-0.3c-0.3,0-0.6,0-0.9,0c-0.1,0-0.2,0-0.3,0.1c0,0-0.1,0-0.1,0c0,0,0,0,0,0c0.1-0.1,0.4-0.3,0.6-0.3
			c0.6-0.3,1-0.3,1.7-0.1c0.2,0.1,0.5,0.2,0.6,0.3c0.1,0.1,0.4,0.1,0.5,0.3L30.1,81.6"/>
	</g>
</g>
<path class="st29" d="M35.3,91c0-0.2-0.2-0.4-0.4-0.3c-0.3,0.2,0,1,0,1c0.4,0.2,0.8-0.1,0.9-0.4C35.8,91.1,35.7,90.8,35.3,91"/>
<path class="st29" d="M17.5,95.1c0.2,0.3,1.3,0.2,1.3,0.2c0-0.4-0.1-0.9-0.4-1.1c-0.1-0.1-0.5-0.1-0.5,0.2c0,0.1,0.1,0.2,0.1,0.2
	c-0.1,0-0.3,0-0.4,0C17.4,94.6,17.4,94.9,17.5,95.1"/>
<path class="st29" d="M34.2,98.4c0,0-0.1-0.2-0.2-0.3c-0.2-0.2-0.5-0.1-0.6,0.2c-0.1,0.5,0.4,1.2,0.4,1.2c0.4-0.1,0.7-0.1,1-0.3
	c0.2-0.1,0.3-0.3,0.3-0.5C35.1,98.1,34.5,98,34.2,98.4"/>
<path class="st14" d="M20.2,98.4c0.1,0,0.2,0.1,0.3,0.2c0.2,0.1,0.5,0.2,0.8,0.2c0.2,0,0.3,0,0.5-0.1c0,0,0.2-0.1,0.2-0.1
	c0,0,0.1,0.2,0.1,0.3c0,0.1,0.1,0.2,0.1,0.3c0,0,0,0.1,0,0.1c0,0.1-0.1,0.1-0.2,0.1c-0.1,0-0.1,0-0.2,0c-0.5,0-1.1-0.2-1.5-0.5
	L20.2,98.4z M32.5,96.9c0.1,0,0.3-0.1,0.4-0.1c0.3-0.2,0.6-0.4,0.8-0.7c0.1-0.1,0.1-0.2,0.2-0.3c0,0,0-0.1,0-0.2c0,0,0,0,0,0
	c0,0.1,0,0.1,0,0.2c0,0.2,0,0.5-0.1,0.7c0,0.1-0.1,0.3-0.2,0.4c-0.3,0.3-0.8,0.6-1.2,0.6L32.5,96.9"/>
<path class="st23" d="M20,98.1l0-0.7c0.1-0.4,0.4-0.6,0.8-0.7c0.1,0,0.3,0,0.4,0.1c0,0,0.1,0.1,0.1,0.1c0,0,0,0,0,0c0,0-0.1,0-0.1,0
	c-0.2,0-0.3,0.1-0.5,0.1C20.3,97.2,20.1,97.6,20,98.1v0.2C20,98.2,20,98.2,20,98.1z M32.3,95.8c0.1-0.4,0.5-0.7,0.9-0.7
	c0.1,0,0.3,0,0.4,0.1c0.1,0,0.1,0,0.1,0.1c0,0,0,0,0,0c0,0,0,0,0,0c-0.2-0.2-0.4-0.4-0.7-0.5c-0.4-0.1-0.8,0.2-1,0.5L32.3,95.8"/>
<path class="st22" d="M30.6,100.6c0.1,0.4,0.3,0.6,0.6,0.7c0.1,0.1,0.3,0.1,0.5,0.2c0.5,0.2,0.8,0.6,0.8,1.2c0,0.1,0,0.4-0.1,0.6
	c0,0,0,0.1,0,0.1c0,0,0,0,0,0c-0.1,0-0.1,0.1,0,0.2c0,0.1,0.1,0.1,0.2,0c0.1,0,0.1-0.1,0.2-0.2c0.1-0.2,0.1-0.5,0.1-0.6
	c0-0.6-0.4-1.1-0.9-1.4c-0.2-0.1-0.3-0.1-0.5-0.2c-0.2-0.1-0.4-0.3-0.4-0.6c0-0.1-0.1-0.1-0.1-0.1S30.6,100.6,30.6,100.6z M30.6,102
	c0.1,0.2,0.2,0.3,0.4,0.4c0.2,0.1,0.3,0.4,0.3,0.6c0,0,0.1,0.1,0.1,0.1s0.1-0.1,0.1-0.1c-0.1-0.3-0.2-0.5-0.4-0.7
	c-0.1,0-0.1-0.1-0.2-0.1c-0.1,0-0.1-0.1-0.1-0.2c0,0-0.1-0.1-0.1-0.1C30.6,101.9,30.6,101.9,30.6,102z M29.7,101.4
	c0,0.1,0,0.3,0,0.4c0,0.1-0.1,0.3-0.2,0.4c0,0.1,0,0.2,0,0.3c0,0,0.1,0.1,0.1,0c0,0,0.1-0.1,0-0.1c0-0.1,0-0.2,0-0.3
	c0-0.1,0.1-0.3,0.1-0.3c0-0.2,0-0.3,0-0.4c0,0-0.1-0.1-0.1-0.1C29.7,101.3,29.7,101.4,29.7,101.4"/>
<g>
	<defs>
		<rect id="SVGID_00000069394785475067673870000014364345427538528428_" x="15.6" y="79.9" width="20.8" height="22.8"/>
	</defs>
	<clipPath id="SVGID_00000133495777145550986370000013883266956464611472_">
		<use xlink:href="#SVGID_00000069394785475067673870000014364345427538528428_"  style="overflow:visible;"/>
	</clipPath>
	<g style="clip-path:url(#SVGID_00000133495777145550986370000013883266956464611472_);">
		<path class="st22" d="M28.4,101.9c-0.5,0.2-0.9,0.4-1.3,0.3c-0.6,0-1.3-0.2-1.3-0.2c-0.1,0-0.2-0.1-0.4-0.1
			c-0.8-0.2-1.8-0.7-2.6-1.7c-0.2-0.3-0.4-0.6-0.7-1c0,0,0,0,0,0c0,0,0,0-0.1,0c-0.3,0.1-1-0.1-1.3-0.2c-0.5-0.2-0.8-0.5-0.9-0.8
			c-0.2-0.5-0.1-1,0.2-1.4c0-0.1,0.1-0.1,0.1-0.2c-0.5-1.2-0.6-2.1-0.5-3.2c-0.1,0-0.2,0-0.2,0c0,0-0.1,0-0.1-0.1
			c0,0-0.1-0.1-0.1-0.2c-0.1-0.2-0.2-0.6-0.2-0.7c-0.1-0.3-0.3-0.6-0.3-0.8c0-0.2,0-0.4,0.3-0.6c0.1-0.1,0.3-0.2,0.7-0.4
			c0,0,0,0,0,0c0.2-0.5,0.4-1,0.6-1.4c-0.1,0-0.2,0-0.3,0.1c-0.3,0.1-0.6,0.1-0.9,0.1c-2.6,0.2-3.7-2.7-2.7-5.3
			c0.7-1.9,2.5-3.6,5.5-3.6c0.8,0,1.6,0.2,2.2,0.5c0.3,0.2,0.6,0.4,0.8,0.6c0-0.1,0.1-0.2,0.2-0.3c0.1-0.2,0.3-0.4,0.5-0.6
			c0.7-0.5,1.5-0.8,2.3-0.6c0.7,0.1,1.4,0.5,1.9,1.3c0.3-0.1,0.7-0.2,1-0.3c0.4-0.1,0.8-0.1,1.2-0.1c0.3,0,0.5,0,0.8,0.1
			c0.3,0.1,0.5,0.1,0.8,0.3c0.2,0.1,0.4,0.3,0.6,0.5c0.3,0.3,0.5,0.7,0.7,1c0.7,1.3,0.8,2.7,0.4,3.7c-0.4,1-1.3,1.7-2.6,1.8
			c0,0,0,0,0,0c0,0.1,0,0.2,0,0.3c0.4,0.1,0.6,0.2,0.7,0.4c0.1,0.2,0.1,0.5,0.1,1c0,0.1,0,0.5,0,0.8c0,0.1,0,0.3,0,0.4c0,0,0,0,0,0
			c0,0-0.2,0-0.4-0.1c0.4,1,0,2.4-0.1,3.4c0.2,0,0.3,0.1,0.5,0.3c0.3,0.3,0.5,0.8,0.4,1.3c-0.1,0.3-0.3,0.7-0.7,0.9
			c-0.2,0.2-0.6,0.3-0.9,0.3c0,0.1,0,0.1,0,0.2C32.1,99.6,30.8,101.2,28.4,101.9C28.4,101.9,28.4,101.9,28.4,101.9z M32.2,97.6
			C32.2,97.6,32.2,97.6,32.2,97.6c0.1-1,0-1.9-0.1-2.6c0,0,0,0,0,0c-0.1,0-0.1-0.1-0.2-0.1c0,0,0,0,0,0s0,0,0,0c0,0-0.1,0-0.1,0
			c-0.7-0.3-1.4-0.6-1.9-1.1c-0.4,0-0.8,0.1-1.1,0.2c-0.1,0-0.1,0-0.2-0.1c0-0.1,0-0.1,0.1-0.2c0.3-0.1,0.6-0.2,0.9-0.2
			c-0.3-0.3-0.5-0.6-0.8-1c-0.2-0.4-0.4-0.8-0.6-1.2c-0.7,0.1-1.3,0.2-2,0.3c-0.8,0.2-1.6,0.3-2.5,0.6c0.1,0.5,0,1-0.1,1.5
			c0,0.1-0.1,0.3-0.1,0.4c0,0,0,0,0.1,0c0.1,0,0.1,0,0.2,0c0,0,0.2,0,0.2,0c0.3,0,0.6,0,0.9,0c0.1,0,0.1,0.1,0.1,0.2
			c0,0.1-0.1,0.1-0.2,0.1c-0.4-0.1-0.8,0-1.3,0c-0.1,0-0.1,0-0.2,0c-0.2,0.9-0.6,1.7-1.4,2.2c0,0-0.1,0-0.1,0c0,0,0-0.1,0-0.1
			c0.7-0.4,1.1-1.2,1.3-2c-0.2,0-0.3,0.1-0.4,0.1l-0.1,0c-0.3,0.8-0.7,1.6-1.2,2.2c0.1,1,0.7,2.6,1.4,3.4c0.9,1.2,2.3,1.5,2.9,1.7
			c0.5,0.1,0.8,0.2,1.3,0.2c0.5,0,1-0.2,1.2-0.3c0,0,0,0,0,0c0,0,0,0,0,0C30.7,101,31.9,99.4,32.2,97.6
			C32.2,97.7,32.2,97.6,32.2,97.6z M22,99c-0.3-0.7-0.6-1.5-0.7-2.1c0,0-0.1,0-0.1,0c-0.3-0.2-0.5-0.2-0.8,0c0,0,0,0-0.1,0
			c0,0-0.1,0.1-0.1,0.1c-0.2,0.3-0.3,0.7-0.1,1.1c0.1,0.3,0.4,0.5,0.7,0.6C21.1,99,21.7,99.1,22,99C22,99,22,99,22,99z M20.6,97.9
			c0.1,0,0.2,0.1,0.3,0.2c0.2,0.1,0.4,0.2,0.6,0.3c0.1,0,0.1,0,0.2-0.1c0-0.1,0-0.1-0.1-0.2c-0.2,0-0.3-0.1-0.5-0.2
			c-0.1-0.1-0.2-0.2-0.3-0.2c-0.1,0-0.1,0-0.2,0.1C20.5,97.8,20.5,97.9,20.6,97.9z M32.5,97.3c0.3,0,0.6-0.2,0.7-0.3
			c0.4-0.2,0.5-0.5,0.6-0.8c0.1-0.4-0.1-0.8-0.3-1.1c-0.3-0.3-0.7-0.3-1,0c0,0-0.1,0.1-0.2,0c0.1,0.3,0.1,0.7,0.1,1.1h0
			c0.2-0.1,0.3-0.2,0.4-0.3c0.1-0.1,0.2-0.2,0.3-0.3c0.1,0,0.1,0,0.2,0c0,0.1,0,0.2,0,0.2c-0.1,0.1-0.2,0.2-0.2,0.2
			c-0.2,0.2-0.3,0.3-0.5,0.4c0,0-0.1,0-0.1,0C32.5,96.8,32.5,97.1,32.5,97.3z M23,92.3c-0.1,0-0.2,0.1-0.3,0.1
			c-0.2,0.1-0.4,0.1-0.6,0.2c0,0-0.3,0.1-0.3,0.1c-0.3,0.1-0.5,0.2-0.8,0.3c-0.2,0.1-0.6,0.3-1,0.5c0,0,0,0,0,0
			c-0.1,0.4-0.1,0.8,0,1.2c0.5-0.2,1-0.7,1.1-1.2c0,0,0.1-0.1,0.1-0.1c0,0,0.1,0.1,0.1,0.1c-0.2,0.5-0.7,1.1-1.2,1.3
			c0.1,0.6,0.2,1.1,0.5,1.7c0.1-0.1,0.2-0.1,0.4-0.1c0.3-0.6,0.5-1.3,0.6-1.9c0,0,0-0.1,0.1-0.1c0,0,0.1,0,0.1,0.1
			c0,0.7-0.3,1.3-0.6,1.9c0.1,0,0.2,0.1,0.3,0.1c0.5-0.5,0.8-1.2,1.1-2l0,0c-0.1,0.1-0.3,0.1-0.4,0.2c-0.1,0.1-0.2,0.1-0.2,0.2
			c-0.1,0.1-0.1,0.1-0.2,0c0,0,0,0,0-0.1c0,0,0-0.1,0-0.1c0,0,0,0,0,0c0.1-0.1,0.2-0.1,0.3-0.2c0.1-0.1,0.3-0.2,0.4-0.2
			c0.1,0,0.2-0.1,0.2-0.1c0.2-0.5,0.3-1,0.4-1.5C23,92.7,23,92.5,23,92.3z M33,91.2c-0.1,0-0.3,0-0.3,0c-0.5-0.1-1-0.1-1.5-0.1
			c0,0-0.1,0-0.1,0c0,0-0.1,0-0.2,0c0.4,0.3,0.9,0.6,1.5,0.7c0,0,0.1,0.1,0.1,0.1c0,0-0.1,0.1-0.1,0.1c-0.7-0.2-1.2-0.5-1.7-0.9
			c-0.3,0-0.6,0-0.9,0c-0.3,0-0.6,0-0.9,0.1c0.1,0.3,0.3,0.6,0.5,0.8c0.4,0.6,0.9,1.1,1.4,1.5c0.2,0,0.4,0.1,0.6,0.1
			c0.1,0,0.3,0.1,0.5,0.1c0.1,0,0.2,0.1,0.3,0.2c0.1,0,0.1,0.1,0,0.2s-0.1,0.1-0.2,0c-0.1-0.1-0.2-0.1-0.3-0.1
			c-0.1-0.1-0.4-0.1-0.5-0.1c0.3,0.4,0.7,0.8,1.2,1c0,0,0,0,0,0c0.2-0.1,0.3-0.2,0.5-0.2c0,0,0-0.1,0-0.1c-0.1,0-0.2-0.5-0.5-0.7
			c-0.4-0.3-0.6-0.5-0.8-0.8c0,0,0-0.1,0-0.1c0,0,0.1,0,0.1,0c0.2,0.3,0.5,0.5,0.8,0.7c0.2,0.2,0.4,0.6,0.4,0.6s0-0.1,0-0.1
			C33.1,93.3,33.4,92.1,33,91.2z M31.5,94.6C31.5,94.6,31.5,94.6,31.5,94.6c-0.3-0.3-0.5-0.6-0.8-0.8c-0.2,0-0.4,0-0.6,0
			C30.5,94.1,30.9,94.3,31.5,94.6C31.4,94.6,31.5,94.6,31.5,94.6z M23.6,92.2c-0.1,0-0.2,0.1-0.3,0.1c0,0.2-0.1,0.4-0.1,0.6
			c-0.1,0.4-0.2,0.8-0.3,1.3c0.2,0,0.3-0.1,0.5-0.1c0-0.2,0.1-0.3,0.1-0.5C23.5,93.1,23.6,92.6,23.6,92.2z M28.6,91.2
			c-0.1,0-0.2,0-0.2,0c0.2,0.4,0.4,0.8,0.6,1.2c0.2,0.4,0.5,0.7,0.8,1.1c0.1,0,0.1,0,0.2,0c0.1,0,0.2,0,0.3,0
			c-0.4-0.4-0.8-0.8-1.2-1.3C28.9,91.9,28.7,91.6,28.6,91.2z M28.4,91c0.1,0,0.6-0.1,0.6-0.1c0.3,0,0.5,0,0.8-0.1c0.5,0,1-0.1,1.5,0
			c0.5,0,1,0,1.5,0.1c0.1,0,0.5,0.1,0.7,0.1c0-0.2,0-0.7,0-0.8c0-0.4,0-0.7-0.1-0.9c0-0.1-0.1-0.1-0.2-0.2c-0.1,0-0.3-0.1-0.5-0.1
			c-0.2,0-0.5,0-0.7,0c-0.4,0-0.7,0-1.1,0c-0.8,0-1.5,0-2.3,0c-0.5,0-1,0-1.5,0.1c-0.8,0.1-1.9,0.3-3.1,0.6c-1.1,0.2-2.1,0.5-3,0.8
			c-0.4,0.1-0.7,0.3-0.9,0.4c-0.5,0.2-0.8,0.5-0.8,0.5c-0.2,0.1-0.2,0.3-0.2,0.4c0,0.2,0.2,0.5,0.3,0.8c0,0.1,0.1,0.6,0.2,0.7
			c0.1,0,0.2,0,0.4-0.1c0.3-0.1,0.7-0.4,1-0.5c0.3-0.1,0.6-0.2,0.9-0.3c0.3-0.1,0.6-0.2,0.9-0.3c1.2-0.3,2.4-0.6,3.5-0.9
			C26.9,91.2,27.6,91.1,28.4,91z M25.3,81.9c0.2,0.2,0.4,0.5,0.5,0.8c0,0.1,0,0.1-0.1,0.2c-0.1,0-0.1,0-0.2-0.1
			c-0.4-0.7-0.8-1.2-1.4-1.6c-0.6-0.3-1.3-0.5-2.1-0.5c-2.9,0-4.6,1.7-5.3,3.5c-0.9,2.4-0.1,5.1,2.4,5c0.3,0,0.6,0,0.9-0.1
			c0.2,0,0.4-0.1,0.5-0.2c0,0,0,0,0,0c0.3-0.5,0.7-1,1.2-1.4c0.1-0.1,0.1-0.1,0.2,0c0.1,0.1,0.1,0.1,0,0.2c-0.5,0.4-0.9,0.9-1.2,1.4
			c-0.3,0.4-0.5,0.9-0.7,1.4c0.2-0.1,0.5-0.2,0.8-0.3c0.9-0.3,1.9-0.6,3-0.9c1.2-0.3,2.3-0.5,3.1-0.6c0.5,0,1-0.1,1.5-0.1
			c0.8,0,1.5,0,2.3,0c0.4,0,0.7,0,1.1,0c0.2,0,0.5,0,0.7,0c0-0.1,0-0.1,0-0.2c0,0,0,0,0-0.1c-0.1,0-0.2,0-0.3,0
			c-0.4,0-0.9-0.1-1.3-0.3c-0.4-0.2-0.8-0.5-1.1-0.8c0-0.1,0-0.1,0-0.2c0.1,0,0.1,0,0.2,0c0.2,0.3,0.6,0.6,1,0.8
			c0.4,0.2,0.8,0.3,1.2,0.3c1.5,0,2.5-0.7,2.9-1.7c0.4-1,0.2-2.3-0.4-3.5c-0.2-0.3-0.3-0.6-0.5-0.8c-0.2-0.2-0.4-0.5-0.7-0.6
			c-0.2-0.1-0.5-0.2-0.7-0.3c-0.3-0.1-0.5-0.1-0.8-0.1c-0.4,0-0.7,0-1.1,0.1c-0.4,0.1-0.7,0.2-1.1,0.3c-0.1,0-0.1,0-0.2-0.1
			c0,0,0,0,0,0c-0.4-0.7-1.1-1.1-1.8-1.2c-0.7-0.1-1.4,0.1-2.1,0.6c-0.2,0.1-0.4,0.3-0.5,0.5C25.4,81.7,25.3,81.8,25.3,81.9"/>
	</g>
</g>
<path class="st14" d="M27.3,99.3c0.3,0,0.6-0.1,0.8-0.1c0.1,0,0.2,0.1,0.1,0.2c0,0.1-0.2,0.4-0.3,0.5c-0.1,0-0.2,0.2-0.5,0.2
	c-0.2,0-0.5-0.1-0.6-0.1c-0.2-0.1-0.3-0.3-0.4-0.4c0-0.1,0-0.2,0.1-0.2C26.7,99.3,27.1,99.3,27.3,99.3"/>
<path class="st14" d="M27.4,98.1c0-0.3-0.4-0.4-0.4,0c0,0.4,0.3,0.8,0.4,0.3L27.4,98.1"/>
<path class="st14" d="M31,97.2c0.3,0,0.6,0.1,0.7,0.4S31.4,98,31,98c-0.3,0-0.6-0.1-0.7-0.4C30.4,97.4,30.6,97.2,31,97.2"/>
<path class="st14" d="M23.3,97.9c0.3,0,0.6,0.1,0.7,0.4s-0.2,0.4-0.6,0.5c-0.3,0-0.6-0.1-0.7-0.4C22.7,98.1,23,97.9,23.3,97.9"/>
<path class="st22" d="M24.8,96.6c0.3,0,0.5,0.3,0.5,0.6c0,0.2,0,0.3-0.1,0.4c-0.1,0.1-0.2,0.2-0.4,0.2c-0.1,0-0.2-0.1-0.3-0.1
	c-0.1-0.1-0.2-0.3-0.2-0.4C24.3,96.8,24.5,96.6,24.8,96.6"/>
<path class="st22" d="M29.3,96.3c0.3,0,0.5,0.3,0.5,0.6s-0.2,0.6-0.5,0.6c-0.3,0-0.5-0.3-0.5-0.6S29.1,96.3,29.3,96.3"/>
<g>
	<g transform="translate(128.092906, 163.563969)">
		<g>
			<path class="st31" d="M-62.7-71L-62.7-71c0.2-3.2-2.1-5.6-8.4-5.6h-4.1c-0.4,0-0.5,0.2-0.5,0.6v15.7c0,0.4,0.1,0.6,0.5,0.6h5.3
				c6,0,8.2-1.5,8.2-4.5c0-2.6-3-3.9-6.4-3.9L-62.7-71z M-71.1-76.2c3.5,0,4.7,1.4,4.7,3.9c0,1.1-0.7,4.3-3.9,4.3h-1v-8.2H-71.1z
				 M-70.4-67.7c2.7,0,4.1,1.5,4.1,3.9c0,1.9-1.4,3.9-4.1,3.9h-1v-7.8H-70.4z"/>
		</g>
	</g>
</g>
<g>
	<g transform="translate(149.808686, 163.563969)">
		<g>
			<path class="st31" d="M-69.6-63.4c0-0.4-0.1-0.6-0.5-0.6h-0.1c-0.3,0-0.8,0.3-1.1,0.6l-4.2,3.5h-0.9v-12.4c0-0.4-0.1-0.6-0.5-0.6
				h-3.1c-0.4,0-0.5,0.2-0.5,0.6v12.1c0,0.4,0.1,0.6,0.5,0.6h10c0.4,0,0.5-0.2,0.5-0.6V-63.4z"/>
		</g>
	</g>
</g>
<g>
	<g transform="translate(167.0186, 163.563969)">
		<g>
			<path class="st31" d="M-78.5-59.4c3.8,0,4.9-1.9,4.9-5.9v-7.1c0-0.4-0.1-0.6-0.5-0.6h-2.7c-0.1,0-0.2,0.1-0.2,0.2v2.8
				c0,0.2,0,0.3,0.2,0.5l3,3.9v0.4c0,4.1-1.5,5.6-4.2,5.6h-0.4c-1.3,0-2-1-2-5.6v-7.1c0-0.4-0.1-0.6-0.5-0.6h-3.5
				c-0.4,0-0.5,0.2-0.5,0.6v7.1C-85.1-61.2-83.3-59.4-78.5-59.4z"/>
		</g>
	</g>
</g>
<g>
	<g transform="translate(194.679625, 163.563969)">
		<g>
			<path class="st31" d="M-90.5-60.2c0,0.4,0.1,0.6,0.5,0.6h6.5c5.9,0,9.1-2.6,9.1-8.5c0-5.9-3.2-8.5-9.1-8.5h-6.5
				c-0.4,0-0.5,0.2-0.5,0.6V-60.2z M-86.1-76.2h1.9c2.8,0,5.3,4.1,5.3,8.1c0,4-2.4,8.2-5.3,8.2h-1.9V-76.2z"/>
		</g>
	</g>
</g>
<g>
	<g transform="translate(219.931268, 163.563969)">
		<g>
			<path class="st31" d="M-83.2-72.3c0-0.4-0.1-0.6-0.5-0.6h-3.1c-0.4,0-0.5,0.2-0.5,0.6v5.6h-4.9v-5.6c0-0.4-0.1-0.6-0.5-0.6h-3.1
				c-0.4,0-0.5,0.2-0.5,0.6v12.1c0,0.4,0.1,0.6,0.5,0.6h3.1c0.4,0,0.5-0.2,0.5-0.6v-6h4.9v6c0,0.4,0.1,0.6,0.5,0.6h3.1
				c0.4,0,0.5-0.2,0.5-0.6V-72.3z"/>
		</g>
	</g>
</g>
<g>
	<g transform="translate(241.928663, 163.563969)">
		<g>
			<path class="st31" d="M-94.6-72.3c-0.1-0.3-0.5-0.6-0.9-0.6h-1.2c-0.3,0-0.7,0.3-0.8,0.6l-5.4,12.1c-0.1,0.3,0,0.6,0.4,0.6h3.5
				c0.5,0,0.7-0.3,0.5-0.6l-1.8-4h4.8l1.8,4c0.2,0.4,0.4,0.6,0.9,0.6h3.3c0.4,0,0.5-0.3,0.4-0.6L-94.6-72.3z M-95.7-64.6h-4.9
				l2.4-5.6L-95.7-64.6z"/>
		</g>
	</g>
</g>
<g>
	<g transform="translate(260.484081, 163.563969)">
		<g>
			<path class="st31" d="M-94.5-68.6L-94.5-68.6c0.2-3.2-1.5-4.3-6.8-4.3h-3.7c-0.4,0-0.5,0.2-0.5,0.6v12.1c0,0.4,0.1,0.6,0.5,0.6
				h4.3c5.5,0,7.2-0.8,7.2-3.9c0-2.6-2.3-3.2-5.6-3.2L-94.5-68.6z M-101.5-66.4c2.6,0,3.9,0.8,3.9,3.2c0,1.9-1.2,3.2-3.6,3.2h-0.4
				v-6.5H-101.5z M-101.3-72.6c2.2,0,3.5,0.6,3.5,3.1c0,1.1-1,2.8-3.7,2.8h-0.1v-5.9H-101.3z"/>
		</g>
	</g>
</g>
<g>
	<g transform="translate(279.853058, 163.563969)">
		<g>
			<path class="st31" d="M-103.2-72.3c-0.1-0.3-0.5-0.6-0.9-0.6h-1.2c-0.3,0-0.7,0.3-0.8,0.6l-5.4,12.1c-0.1,0.3,0,0.6,0.4,0.6h3.5
				c0.5,0,0.7-0.3,0.5-0.6l-1.8-4h4.8l1.8,4c0.2,0.4,0.4,0.6,0.9,0.6h3.3c0.4,0,0.5-0.3,0.4-0.6L-103.2-72.3z M-104.2-64.6h-4.9
				l2.4-5.6L-104.2-64.6z"/>
		</g>
	</g>
</g>
</svg>
