<?xml version="1.0" encoding="utf-8"?>
<!-- Generator: Adobe Illustrator 26.4.1, SVG Export Plug-In . SVG Version: 6.00 Build 0)  -->
<svg version="1.1" id="Layer_1" xmlns="http://www.w3.org/2000/svg" xmlns:xlink="http://www.w3.org/1999/xlink" x="0px" y="0px"
	 viewBox="0 0 500 500" style="enable-background:new 0 0 500 500;" xml:space="preserve">
<style type="text/css">
	.st0{clip-path:url(#SVGID_00000107589471444921396970000003713367576339761567_);}
	.st1{fill:#FFBD59;}
	.st2{fill-rule:evenodd;clip-rule:evenodd;fill:#FFE7DB;}
	.st3{fill-rule:evenodd;clip-rule:evenodd;fill:#743513;}
	.st4{clip-path:url(#SVGID_00000154420352592043365890000001126886002556661667_);}
	.st5{fill-rule:evenodd;clip-rule:evenodd;fill:#FFFFFF;}
	.st6{clip-path:url(#SVGID_00000150088433675744166870000006465478320904866198_);}
	.st7{clip-path:url(#SVGID_00000148624132195235992410000003350713584957488042_);}
	.st8{fill-rule:evenodd;clip-rule:evenodd;fill:#E5E5E5;}
	.st9{fill-rule:evenodd;clip-rule:evenodd;fill:#4E6424;}
	.st10{fill-rule:evenodd;clip-rule:evenodd;fill:#3F5415;}
	.st11{fill-rule:evenodd;clip-rule:evenodd;fill:#627837;}
	.st12{fill-rule:evenodd;clip-rule:evenodd;fill:#DB9F47;}
	.st13{clip-path:url(#SVGID_00000131332570088289922140000011271869031397601692_);}
	.st14{fill-rule:evenodd;clip-rule:evenodd;fill:#FDC3AB;}
	.st15{fill-rule:evenodd;clip-rule:evenodd;fill:#F9BA61;}
	.st16{fill-rule:evenodd;clip-rule:evenodd;fill:#BC832B;}
	.st17{fill-rule:evenodd;clip-rule:evenodd;fill:#FFD4C3;}
	.st18{clip-path:url(#SVGID_00000002386140986890556310000011346693561589460143_);}
	.st19{fill-rule:evenodd;clip-rule:evenodd;fill:#FFA580;}
	.st20{clip-path:url(#SVGID_00000180364435123900348780000004497103867006178176_);}
	.st21{clip-path:url(#SVGID_00000156585095227661112390000018412641831441542298_);}
	.st22{fill-rule:evenodd;clip-rule:evenodd;fill:#4C1300;}
	.st23{fill-rule:evenodd;clip-rule:evenodd;fill:#FFF5E9;}
	.st24{fill-rule:evenodd;clip-rule:evenodd;fill:#FAD0C4;}
	.st25{clip-path:url(#SVGID_00000165210688042138677290000000230468780734352315_);}
	.st26{fill-rule:evenodd;clip-rule:evenodd;fill:#FFF8F8;}
	.st27{fill-rule:evenodd;clip-rule:evenodd;fill:#EBE2E2;}
	.st28{clip-path:url(#SVGID_00000118379098935509661070000017923412636282247828_);}
	.st29{fill-rule:evenodd;clip-rule:evenodd;fill:#D6682B;}
	.st30{clip-path:url(#SVGID_00000131337303692641597240000013190220717944886164_);}
</style>
<g>
	<g>
		<defs>
			<rect id="SVGID_1_" x="-90.9" y="-83.4" width="688.2" height="666.7"/>
		</defs>
		<clipPath id="SVGID_00000039839976004516336190000000214812134108237495_">
			<use xlink:href="#SVGID_1_"  style="overflow:visible;"/>
		</clipPath>
		<g style="clip-path:url(#SVGID_00000039839976004516336190000000214812134108237495_);">
			<path class="st1" d="M243.4-83.4c41.8,1.2,81.7,8.1,120.4,23.9c18.2,7.4,38.7,11.7,58.3,11.7c28.9,0,49.9,14.8,66,33.9
				c39.2,46.4,72.9,96.5,85.1,158c1,4.5,1.7,9.1,3.6,13.4c20.6,48.8,16,98,1,147c-7.2,23.4-13.6,47.6-23.4,69.8
				c-18.2,41.3-47.3,75.3-80.8,105.1c-32.3,28.7-66.2,55-105.9,73.6c-36.3,17-73.8,30.3-114,28.2c-28.4-1.7-56.9-8.8-84.4-16.3
				C63,536.3-16.9,474.2-65.1,374.5c-23.7-49-25.6-100.8-15.8-153.2c6.9-36.6,16.3-72.9,26.3-108.7c4.3-15.8,9.8-33,20.1-45.2
				C-6.3,34.2,19-1.9,57.2-26c38.5-24.4,79.3-40.6,123.3-50.2C201.1-80.7,222.4-81.2,243.4-83.4"/>
		</g>
	</g>
</g>
<path class="st2" d="M263.5,366.4c-1.9,0-5.7,1.4-6.2,3.3c-0.5,2.2,3.1,6.5,5.5,6.2c1.7-0.2,3.1-2.4,4.1-3.6c1-1.2,1.4-2.6,1.9-4.1
	L263.5,366.4"/>
<path class="st3" d="M307.4,355.1c-2.4,0-5,1.2-6.9,2.4c-1.4,0.7-3.6,1.7-4.5,3.1c-1.2,1.9,0.7,7.4,1.4,9.6c0.7,1.4,1.7,4.5,3.1,5.3
	c1.2,0.7,9.6,0,11.5,0.2c2.9,0.2,5.7,1.2,8.6,1.9c2.9,0.5,5.7,0.5,8.6,1.2c2.4,0.5,4.8,1.7,6.9,2.6c3.6,1.4,6.7,3.3,10,5
	c2.6,1.4,5.5,2.4,8.1,3.6c1.9,0.7,3.1,2.2,4.8,3.3c0,0,0.2,0.2,0.5,0c1.4-1.4,1-10.5,1-12.7c-0.2-7.6,0-12.9-6-18.9
	c-7.9-7.6-22.2-8.8-27-19.6L307.4,355.1"/>
<g>
	<g>
		<defs>
			<rect id="SVGID_00000167387930754325488550000008333303349840013465_" x="188.7" y="351.8" width="157.7" height="187.4"/>
		</defs>
		<clipPath id="SVGID_00000134969447266948443870000012685625857391277243_">
			<use xlink:href="#SVGID_00000167387930754325488550000008333303349840013465_"  style="overflow:visible;"/>
		</clipPath>
		<g style="clip-path:url(#SVGID_00000134969447266948443870000012685625857391277243_);">
			<path class="st5" d="M262.5,378.1c4.3-6.9,12.9-14.1,19.8-17.4c2.2-1,7.2-3.3,9.8-2.9c1.4,0.2,2.2,2.9,2.9,4.1
				c1.9,3.8,4.1,7.6,5.3,11.9c0.2,0.7,0.5,1.7,0.5,2.9l0.7-0.2c1.2-0.2,2.4-0.5,3.8-0.5c1.7,0,2.6,0.5,3.3,1.2l4.8-1.4l-4.5,50.7
				c1.9,4.3,3.1,17.9,11,31.5c9.3,16,25.8,28,25.8,31.5c-0.5,11.5-1,17.4-2.2,28.9c0,1-0.2,6-0.7,10c-23.4,7.4-48.3,10.5-74.1,10.5
				h-1c-25.8,0-50.7-4.1-74.1-11.7c-0.5-4.1-0.7-8.1-1-9.1c-1-9.3-1.7-18.6-2.2-28c-0.2-4.8,13.9-11.7,23.2-26
				c8.4-12.9,11.7-33.7,13.6-38l-3.6-40.9l0,0c0-2.2,0-4.3,0-6.5c0-0.5-0.5-3.6,0-3.8c0.7-0.5,3.6-0.5,4.5-0.5c0.7,0,3.8-0.7,4.3,0
				c0.7,0.7,0.5,4.3,0.7,5.3c0.2,2.9,0.7,6,1,9.1l1.9,0.5l2.6,34.9l1.2,1.9c3.3,0,52.1,0,55.4,0l1.2-1.9l3.1-36.6
				c-0.7,0-1.4,0.2-1.7-0.2c-1-1-0.2-4.1-0.2-5.3c0.2-1.2,0.2-2.6,0.5-3.8l-35.4,1c0,0.2,0.2,0.5,0.2,0.7l-29.4-4.8
				c-0.2-2.6-1.4-12.7,0-14.3c1.2-1.4,6.9-0.5,8.6-0.2c2.2,0.2,4.5,0.7,6.5,1.9C253.4,364.9,260.1,372.6,262.5,378.1"/>
		</g>
	</g>
</g>
<g>
	<g>
		<defs>
			<rect id="SVGID_00000131333774696713361560000013113204997376893072_" x="236.9" y="445.2" width="106.8" height="93.9"/>
		</defs>
		<clipPath id="SVGID_00000058575524998282678150000013064431749598562454_">
			<use xlink:href="#SVGID_00000131333774696713361560000013113204997376893072_"  style="overflow:visible;"/>
		</clipPath>
		<g style="clip-path:url(#SVGID_00000058575524998282678150000013064431749598562454_);">
			<g>
				<g>
					<defs>
						<path id="SVGID_00000039129587731221545790000008027752001655219079_" d="M262.5,378.1c4.3-6.9,12.9-14.1,19.8-17.4
							c2.2-1,7.2-3.3,9.8-2.9c1.4,0.2,2.2,2.9,2.9,4.1c1.9,3.8,4.1,7.6,5.3,11.9c0.2,0.7,0.5,1.7,0.5,2.9l0.7-0.2
							c1.2-0.2,2.4-0.5,3.8-0.5c1.7,0,2.6,0.5,3.3,1.2l4.8-1.4l-4.5,50.7c1.9,4.3,3.1,17.9,11,31.5c9.3,16,25.8,28,25.8,31.5
							c-0.5,11.5-1,17.4-2.2,28.9c0,1-0.2,6-0.7,10c-23.4,7.4-48.3,10.5-74.1,10.5h-1c-25.8,0-50.7-4.1-74.1-11.7
							c-0.5-4.1-0.7-8.1-1-9.1c-1-9.3-1.7-18.6-2.2-28c-0.2-4.8,13.9-11.7,23.2-26c8.4-12.9,11.7-33.7,13.6-38l-3.6-40.9l0,0
							c0-2.2,0-4.3,0-6.5c0-0.5-0.5-3.6,0-3.8c0.7-0.5,3.6-0.5,4.5-0.5c0.7,0,3.8-0.7,4.3,0c0.7,0.7,0.5,4.3,0.7,5.3
							c0.2,2.9,0.7,6,1,9.1l1.9,0.5l2.6,34.9l1.2,1.9c3.3,0,52.1,0,55.4,0l1.2-1.9l3.1-36.6c-0.7,0-1.4,0.2-1.7-0.2
							c-1-1-0.2-4.1-0.2-5.5c0.2-1.2,0.2-2.4,0.5-3.6l-35.4,1c0,0.2,0.2,0.5,0.2,0.7l-29.4-4.8c-0.2-2.6-1.4-12.7,0-14.3
							c1.2-1.4,6.9-0.5,8.6-0.2c2.2,0.2,4.5,0.7,6.5,1.9C253.4,364.9,260.1,372.6,262.5,378.1z"/>
					</defs>
					<clipPath id="SVGID_00000122002396853836067870000006703402692936031873_">
						<use xlink:href="#SVGID_00000039129587731221545790000008027752001655219079_"  style="overflow:visible;"/>
					</clipPath>
					<g style="clip-path:url(#SVGID_00000122002396853836067870000006703402692936031873_);">
						<path class="st8" d="M257.7,540.8c17.4-4.1,43.3-3.8,65-13.6c14.8-6.7,14.3-25.8,16.7-37.8c0-0.7,1.2-8.6,3.1-8.4
							c0.5,0,0.5,1.2,0.5,1.7c2.2,15.1-1,44-4.5,59.3l-63.1,2.4c-11.7,2.6-23.9,3.3-36.1,1.4L257.7,540.8z M245.8,505.5
							c15.3,4.3,30.1,9.1,45.9,4.3c4.1-1.2,8.4-2.9,11-6.2c7.2-8.1,2.2-28.7-0.7-37.8c-0.2-1.2-3.6-11-4.5-11.2l0,0
							c-0.5,0.7,0.7,7.9,1,8.8c0.7,5.5,1.7,11,1.9,16.5c1,17-4.5,24.6-21.7,25.1L245.8,505.5z M245.3,460.3c10.8-2.6,21.7-5,32.7-5
							c3.3,0,7.6,0.2,10.5,2.2c0.7,0.5,4.1,4.5,1.9,4.5L245.3,460.3z M236.9,449.3c9.1-0.7,17.9-1.7,26.8-2.6
							c6.5-0.7,13.1-1.4,19.6-1.2c4.8,0,12.7,0.2,14.1,6.2L236.9,449.3"/>
					</g>
				</g>
			</g>
		</g>
	</g>
</g>
<path class="st9" d="M219.5,376.4c-5.5-1.4-9.3,0-14.6,1.7c-2.6,0.7-5.3,1.2-7.9,2.2c-3.6,1.4-6.7,4.1-9.8,6.2
	c-1.9,1.4-4.3,2.2-6.2,3.6c-3.1,2.2-5.5,5-8.1,7.6c-2.2,2.2-4.8,4.1-6.2,6.9c-2.2,4.3,3.8,21.7,1,22.7c-2.6,1-5.3-1.7-6.7-3.6
	c-1.7-2.4-1.9-5.3-3.1-7.9c-2.2-4.8-9.8-22.7-12.9-25.1c-4.3-3.1-16.3,5.7-20.3,7.4c-2.6,1-14.3,4.5-15.5,7.6v0.5
	c0,3.3,2.4,5.7,3.1,9.1c1.2,4.3,0,9.3,0.5,13.9c0.5,6.9,0,13.6,0.5,20.6c0.5,5.5,1.7,11.9,2.9,17.2c1.9,7.2,5.3,13.9,8.8,20.3
	c5.7,10.8,11,22.5,20.8,29.9c1.7,1.2,4.5,1.2,6.5,1.2c9.3,0,13.9-3.1,20.3-10c5-5.5,8.8-12.4,13.4-18.2c3.3-4.1,8.1-6.7,11.7-10.8
	c4.1-4.5,8.1-9.6,11.5-14.8c3.8-6,6-13.4,8.6-20.1c3.6-8.8,8.6-18.6,6.9-28.4c0-0.7-0.2-1.9-0.7-2.6L219.5,376.4z M310.8,376.4
	c-2.6,8.6-0.7,17-1.9,25.6c-1.4,10.3-6,20.6-0.5,30.3c1.9,3.6,4.5,6.7,6.2,10.5c2.6,7.2,5,14.3,9.3,20.6c2.4,3.3,5.5,7.4,8.4,10.5
	c3.1,3.1,7.9,5.7,9.8,9.8c1.7,3.3,4.8,6.7,7.6,9.6c1.9,1.9,2.6,5,4.3,7.2c4.3,5.5,14.6,11.7,22.2,8.8c3.6-1.4,6.7-3.8,9.6-6.5
	c12.4-11.2,17.2-26.3,22.5-41.6c3.6-10.8,7.6-22,9.1-33.5c0.7-5.5,1-11.5,2.9-16.7c0.7-2.2,1.9-3.8,3.1-5.7c0.5-0.7,1.4-1,1.4-1.4
	c0-0.2,0-0.5,0-0.7c-1.2-1.2-3.3-1.9-4.8-2.9c-2.9-1.9-6-4.1-8.8-6c-1.7-1.2-17-10.5-18.9-9.8c-4.1,1.9-6.2,11-7.9,14.8
	c-1.9,4.8-5,9.3-7.6,13.6c-1.2,1.9-5.3,8.1-7.6,7.4c-2.9-1-4.1-6.2-3.3-8.6c0.7-2.4,3.1-4.1,2.6-6.7c-0.7-3.8-10.3-11-13.4-12.9
	c-4.8-2.9-11.2-7.4-16.5-8.8c-1.9-0.5-8.6-0.5-9.6-2.4L310.8,376.4z M270.1,366.9c-2.2,0-5,12.2-7.2,12.2c-3.1,0-2.2-6.9-7.9-11.9
	c-5.5-4.8-17.9-7.4-20.6-7.9c-2.6-0.5,0,16.3-2.9,16.3l2.6,14.8c-0.7,1.2,0.7,11,1,12.7c0.5,5.3-1,13.4,1.4,18.2
	c1,1.9,5.7,2.6,7.6,3.1c1.7,0.2,3.3,0.2,5,0.2c6.7,0.5,13.4,0.2,19.8,0.5c6.5,0.2,13.1,1,19.6,0c1.2-0.2,5-0.2,6-1.2
	c0.2-0.2,0.7-8.8,0.7-9.6c0.2-4.3,0.5-8.6,0.7-12.9c0.2-4.8,3.3-17.9,3.3-22.9l-6.9-21.5L270.1,366.9"/>
<path class="st10" d="M113.9,429.5c-2.2,22.7,11.9,79.8,44.9,71.2c15.5-4.1,24.4-19.8,34.4-30.8c4.5-5,9.8-9.6,14.3-14.6
	s8.8-10,11.9-16c1-2.2,1.9-4.3,2.9-6.5c0.5-1,0.7-1.7,1.2-2.6c0,0,0.2-1,0.2-0.5c-0.2,7.2-6.2,17.9-9.8,23.9
	c-4.1,7.2-8.6,14.6-14.1,21c-3.3,3.8-6.9,7.2-10,11c-10.5,12.9-24.9,40.4-45.6,32.3c-3.6-1.4-6.5-4.3-8.8-7.4
	c-4.1-5.7-5.7-12.7-8.8-18.6c-2.4-4.5-6.2-7.6-8.1-12.9c-3.6-10.3-5.5-22-7.2-32.5L113.9,429.5z M332.3,473.4
	c1.4,4.5,6.9,7.9,10.3,11c13.6,12.4,19.8,15.3,35.8,5.7c5.5-3.3,10.8-7.2,14.1-12.7c6.5-10.5,11.5-23.2,14.8-34.9
	c1.4-5,2.2-10.3,3.6-15.3c1-3.6,3.1-6.7,3.8-10.3c0.2-1.2-2.2-4.3-1.7-7.2c0.5-3.3,6.5-13.9,10.5-8.6c3.3,4.5-3.6,13.9-5.3,17.9
	c-1,2.4-1.7,5-2.2,7.6c-1.4,7.4-1.9,15.1-3.6,22.5c-3.1,12.7-12.7,31.5-19.4,42.8c-4.3,6.9-9.3,16.7-17.9,18.9
	c-8.1,1.9-18.4-1.2-24.1-6.9c-2.4-2.4-4.1-5.7-5.7-8.6c-1.7-3.1-2.4-6.7-4.3-9.6c-1.7-2.2-4.1-3.6-6-5.3c-2.9-2.4-5.5-5-7.9-7.9
	L332.3,473.4z M170.5,427.3c1-3.8,2.6-7.6,3.8-11.5c2.4-7.2,4.3-14.6,8.8-20.8c1.9-2.4,3.8-4.5,6.2-6.2c1-0.7,2.4-1.2,3.1-1.9
	c0-0.2-0.5,0-0.5,0c-0.5,0.2-0.5,0.2-1,0.5c-0.7,0.2-1.4,0.7-2.2,1c-2.4,1.2-4.5,2.4-6.7,3.6c-7.4,4.5-13.4,10.5-17.7,17.9
	L170.5,427.3z M237.9,421.6c11.7,0,40.9,1.7,49.2-8.8c4.5-6,5.5-17.4,6.9-25.1c0.2-1,1.9-9.1,2.4-9.1c0.2,0,0.7,3.1,1,4.1
	c0.5,4.1,0.5,8.1,0,12.2c-0.2,3.6-0.7,7.4-1,11c-0.2,4.5,0.5,13.4-2.9,17c-2.6,3.1-9.1,1.9-12.9,2.2c-2.2,0.2-4.3,1-6.7,1
	c-11.2,1-23.2,1.4-34.2-1L237.9,421.6z M343,386.5c8.1,4.1,12.9,13.6,16.7,21.5c0.7,1.2,4.5,10.3,5.5,10.5c0,0,1-3.1,1.7-4.8
	c0.5-1.7,3.1-7.6,2.4-9.1c-0.7-1.4-5.7-4.5-7.2-5.7c-1.9-1.4-3.6-3.3-5.3-4.8c-3.8-3.3-8.1-6.7-12.4-9.8L343,386.5z M300,376.4
	c-1.2,0.5-2.2,1.2-3.3,1.7c-3.8,1.7-7.9,2.2-12.2,2.2c-3.6,0-6.9-0.2-10.3-0.5c-3.6-0.2-6.9-0.5-10.5-1c-0.2,0-2.9-0.2-2.9-1
	c0-0.5,1.9-0.7,2.2-0.7c2.9-0.5,5.7-1.2,8.6-1.9c3.8-1,10.8-2.9,16-5.7c3.6-2.2,6.7-4.8,7.2-7.9L300,376.4z M231.9,371.9
	c6,1,12.2,2.4,18.4,1.7c1.2,0,8.6-2.4,8.6-2.4c1.4,0.2,1.9,4.5,0.5,5.5c-2.6,1.9-7.4,2.2-10.5,1.7L231.9,371.9"/>
<path class="st11" d="M142.8,392.4c-8.1,4.1-18.4,9.1-23.9,16.7c-1.9,2.6-2.9,5.7-3.3,8.8c-0.2,1.4-0.2,2.6-0.2,3.8v0.5
	c-0.5,0-1-1.4-1.2-1.7c-1-1.7-1.9-3.6-2.6-5.3c-1-2.4-2.2-4.5-3.1-6.9c-0.2-0.7-1-1.7-0.5-2.4c0.7-1.4,5.3-3.1,6.7-3.8L142.8,392.4z
	 M368.6,420.6c6.2,0,15.3-6.2,19.8-10.3c0.5-0.5,4.5-4.3,4.5-5c-0.5-1.4-7.4-4.1-8.8-4.8L368.6,420.6z M386,399.4
	c1-1,2.2-1.9,3.1-2.6c4.3-2.9,9.1-4.1,14.1-3.1c2.4,0.5,4.5,1.2,6.7,2.2c0.7,0.2,1.4,0.7,2.2,1.2c0.2,0.2,0.7,0.2,1,0.5l0.5,0.2
	c0-0.2-0.7-0.5-0.7-0.5c-1-0.7-1.9-1.2-2.6-1.9c-3.3-2.2-6.5-4.5-9.8-6.7c-2.9-1.7-6.2-3.1-9.6-4.1L386,399.4z M266.6,374.5
	c1.4-1.2,2.6-2.6,4.3-3.8c3.8-3.3,8.1-7.2,12.9-9.1c2.6-1,5.3-0.5,7.9-1c0.2,0,2.9-0.2,2.9-0.5c0.2-0.2-1-0.7-1-0.7
	c-1.2-0.5-2.6-1-3.8-1c-4.1-0.7-8.6,0.5-12.2,2.4L266.6,374.5z M233.8,373.5c0.7-4.5,2.6-8.4,7.6-9.1c2.2-0.2,4.3,0,6.5,0.2
	c1,0.2,1.9,0.5,2.9,0.5h0.2c0-0.2-4.1-1.9-4.5-2.2c-3.3-1.4-11.7-5-15.3-2.9L233.8,373.5"/>
<path class="st12" d="M431.7,305.7c0,0-8.1,16.7-12.7,25.1c-10.8,19.8-21.3,39.7-32.3,59.5c-2.6,5-13.4,26.5-18.2,27.5
	c-1,0.2-1.4-0.2-1.9-1c-2.9-4.5,7.9-21.3,10.8-26.8c11.2-20.8,22-41.8,33.2-62.6c4.5-8.4,13.4-25.3,13.4-25.3L431.7,305.7"/>
<g>
	<g>
		<defs>
			<rect id="SVGID_00000088844445901780128200000017283244115261845664_" x="404" y="222.8" width="83.9" height="86"/>
		</defs>
		<clipPath id="SVGID_00000167361045261470269080000017414361980142797989_">
			<use xlink:href="#SVGID_00000088844445901780128200000017283244115261845664_"  style="overflow:visible;"/>
		</clipPath>
		<g style="clip-path:url(#SVGID_00000167361045261470269080000017414361980142797989_);">
			<path class="st14" d="M433.6,299.2c17.4,13.1,22.2,1,30.1-14.6c3.8-7.6,8.1-15.3,12.2-22.7c2.4-4.5,9.3-16,8.4-21.3
				c-0.2-1.2-1-2.4-1.9-3.1c-4.5-4.3-10.3-5.3-16.5-6c-5.5-0.5-11.7-1.4-16.7,0.7c-9.8,3.8-19.4,24.4-23.7,33.5
				c-1.9,4.1-9.8,16.5-8.4,22.2C418.5,293.7,433.6,299.2,433.6,299.2"/>
		</g>
	</g>
</g>
<path class="st14" d="M421.4,303.5c2.4,1.2,10,6.2,12.4,6c2.4-0.2,3.6-5.3,5-6.9c1-1,3.6-0.5,5.7-2.6c2.4-2.6,3.6-6.7,5-9.8
	c1.2-2.6,2.6-5.5,4.1-8.1c2.4-4.3,4.8-8.4,6.9-12.9c0.7-1.2,1.7-2.6,1.9-4.1c0-0.7-0.2-1.4-0.7-1.9c-1.7-2.2-4.3-3.8-6.7-5.5
	c-2.4-1.4-9.1-4.3-11.7-4.3c-1.9,0-3.3,3.1-3.8,4.1c-2.9,5.3-5.7,10.8-8.4,16.3c-1.7,3.3-7.4,12.2-7.4,15.8c0,1.4,1.4,4.1,1.2,6.2
	C424.5,298.5,421.4,303.5,421.4,303.5"/>
<path class="st12" d="M102.9,313.3c-9.1,0.5-21-10.5-26.5-20.1c-6.2-11.2-3.8-24.4,5.3-29.2c9.1-5,21.5,0,27.5,11.2
	c5.3,9.3,6.9,26.5,1.9,34.4c1.7,3.3,8.8,17.2,12.9,24.9c11.7,21.7,22.7,43.7,34.4,65.5c3.1,5.7,14.1,23.2,11,28
	c-0.5,0.7-1,1.2-1.9,1c-5-1-16-23.7-18.9-28.7c-11.2-20.8-22.2-41.6-33.5-62.4C111.5,330.8,105,317.9,102.9,313.3"/>
<path class="st5" d="M141.6,387.6c-6.5,10-33.9,5.3-33.9,5.3c-1-4.8,7.9-32.7,10.3-36.6c2.6-4.3,10-11,14.8-12.7
	c1.2-0.5,2.4-0.7,3.6,0c1.2,0.7,3.1,4.8,2.6,6.2c-0.2,0.7-1,1.4-1.7,2.4c1-0.5,2.4-0.7,3.3,0c1.2,0.7,3.1,4.5,2.6,6.2
	c-0.2,0.5-0.7,1.2-1.4,1.9c0.7-0.2,1.7-0.2,2.4,0.2c1.2,0.7,3.1,4.5,2.6,6.2c-0.2,0.5-0.7,1-1.2,1.7c0.7,0,1.2,0,1.9,0.2
	c1.2,0.7,3.3,4.8,2.6,6.2C149.5,375.7,145.9,381.2,141.6,387.6"/>
<path class="st5" d="M392.5,378.1c5.5,10.5,33.5,8.1,33.5,8.1c1.4-4.5-5.3-33.5-7.2-37.5c-2.2-4.5-8.8-11.9-13.4-14.3
	c-1-0.5-2.4-1-3.6-0.5c-1.2,0.5-3.6,4.3-3.1,6c0.2,0.7,0.7,1.4,1.4,2.6c-1-0.5-2.2-1-3.3-0.5c-1.4,0.5-3.6,4.3-3.1,6
	c0.2,0.5,0.7,1.2,1.2,2.2c-0.7-0.2-1.7-0.2-2.4,0c-1.4,0.5-3.6,4.3-3.1,6c0.2,0.5,0.5,1,1,1.7c-0.7-0.2-1.2-0.2-1.9,0
	c-1.2,0.5-3.6,4.3-3.1,6C385.6,364.9,388.7,371.2,392.5,378.1"/>
<path class="st8" d="M112.2,390.5c8.4,0.2,21.7-9.1,28-14.1c2.2-1.7,4.3-3.6,6.2-5.7c0.2-0.2,1.4-2.4,1.9-2.2c0.5,0,0.2,2.6,0.2,2.9
	c-0.2,3.1-1.2,6-2.6,8.6c-4.5,8.8-8.6,13.9-19.1,13.1L112.2,390.5z M394.2,381.2c11,1.9,19.8-3.6,23.2-14.3c1-3.6,1.2-7.4,1.2-11
	c0-1.2-0.2-2.6-0.2-3.8c0-0.7-0.2-1.2-0.2-1.9c0-0.2-0.2-0.7-0.2-0.5c1,1.2,2.2,6.7,2.9,8.4c2.2,6.7,4.3,13.6,5.7,20.6
	c0.5,1.9,1.7,7.4-0.2,9.1c-2.4,1.9-14.1,1-17.2,0.5L394.2,381.2"/>
<path class="st15" d="M90,306.2c-6.9-5.7-11.7-22.9-8.6-31.3c1.2-3.8,3.8-7.4,7.2-9.8c1.2-0.7,2.4-1.4,3.8-1.9
	c0.2,0,2.2-0.7,2.2-0.7c-2.4-1.2-9.3,0-11.5,1.2c-6.2,2.9-10.8,8.8-11.2,15.8c0,1.2,0.5,2.4,0.5,3.6c0,2.6,0,4.8,1,7.2
	c1,2.9,2.9,7.9,6.2,9.1L90,306.2"/>
<path class="st16" d="M145.2,382.9c0.5,3.3,2.9,6.2,4.3,9.1c3.8,7.9,8.6,15.3,12.9,23.2c1.4,2.6,2.9,5,4.1,7.6
	c0.2,0.5,1.2,2.6,1.4,2.4c0.2,0,0-1,0-1c0-1-0.2-2.2-0.5-3.1c-0.7-4.3-1.9-8.6-3.3-12.7c-1.4-3.8-3.1-7.6-5.3-11.2
	c-3.3-5.5-7.4-10.8-11-16L145.2,382.9z M110,316.4c-0.5-1-1-1.9-1.7-2.6c-0.7-1.2-1.9-2.6-1.9-3.8c-0.2-2.4,0.5-5,1-7.4
	c0.2-2.6,0.5-5.3,0.5-7.9c0-10.8-1.9-21-9.8-28.9l9.6,4.8c5.3,6.5,8.6,15.8,8.1,24.1c-0.2,4.1-1.9,7.9-2.4,11.9
	c-0.2,3.3,1,6.2,1.9,9.3c1.9,3.3,3.6,6.5,5.5,9.8c1.9,3.6,3.8,7.4,6,11c1,1.7,1.9,3.1,2.6,4.5s-1.4,3.3-2.4,4.3
	c-0.2,0.2-1,1.2-1.4,1c-0.7-0.2-1.2-1.7-1.7-2.2c-1.2-2.2-2.4-4.5-3.6-6.9c-3.3-6.5-6.5-12.9-9.6-19.6
	C110.5,317.4,110.3,316.9,110,316.4"/>
<path class="st17" d="M426.7,294.7c0.5-1.7,1.4-2.9,2.2-4.5c1.4-2.9,2.9-6,4.5-8.8c2.9-5.5,5.3-11.2,9.3-15.8
	c1.9-2.2,4.5-4.1,7.4-4.8c1-0.2,2.2,0,3.1,0c0.2,0,1.7,0.5,1.7,0.2c0-1-1.9-1.9-2.6-2.4c-1.9-1.4-8.6-4.1-10.8-1.9
	c-3.3,3.1-5.5,7.4-7.9,11.2c-4.1,6.5-7.9,13.1-11,20.1L426.7,294.7"/>
<g>
	<g>
		<defs>
			<rect id="SVGID_00000017479522701795770180000010991998803714544822_" x="404" y="222.8" width="83.9" height="71.7"/>
		</defs>
		<clipPath id="SVGID_00000032644113572997790800000006814237299033599658_">
			<use xlink:href="#SVGID_00000017479522701795770180000010991998803714544822_"  style="overflow:visible;"/>
		</clipPath>
		<g style="clip-path:url(#SVGID_00000032644113572997790800000006814237299033599658_);">
			<path class="st17" d="M419.7,289.7c1.9-5.3,4.8-10.3,7.4-15.3c5.3-10.3,12.4-27.2,22.5-33c6.2-3.6,12.9-4.3,20.1-3.8
				c2.6,0,5.3,0.2,7.9,0.7c0.2,0,2.4,0.2,2.2,0c0-0.5-1.4-1-1.9-1.2c-1.7-1-3.6-1.4-5.5-1.9c-7.6-2.2-16-3.3-23.7-0.2
				c-7.6,3.1-12.4,9.3-16.7,16c-6,9.3-11.2,20.6-15.3,30.8L419.7,289.7"/>
		</g>
	</g>
</g>
<path class="st19" d="M453,302.6c0-1,1-1.9,1.2-2.6c1-1.9,1.9-3.6,3.1-5.5c1.2-1.9,2.2-3.8,3.3-6c1-1.7,1.9-3.6,2.6-5.3
	c0.7-1.2,1.2-2.6,1.9-4.1c0.7-1.4,1.2-2.9,1.9-4.3c1.2-2.6,2.6-3.8,1-6.7c-0.2-0.7-0.7-1.2-1.2-1.9c-0.7-0.7-1.4-1.7-2.6-1.9
	c-0.7-0.2-1.9,2.4-2.4,2.9c-2.2,3.8-4.3,7.9-6.2,11.9c-3.3,6.7-6.5,13.1-9.8,19.8c-1,1.7-1.7,3.1-2.4,4.8c-0.2,0.5-0.7,1.2-0.5,1.7
	c0.2,0.5,1.2,0.5,1.4,0.5c1.4,0.2,2.9,0.2,4.3,0L453,302.6"/>
<g>
	<g>
		<defs>
			<rect id="SVGID_00000023249072319449798360000018232372327674777252_" x="461.3" y="237.1" width="26.5" height="57.4"/>
		</defs>
		<clipPath id="SVGID_00000118394492940840514670000005178077976855637664_">
			<use xlink:href="#SVGID_00000023249072319449798360000018232372327674777252_"  style="overflow:visible;"/>
		</clipPath>
		<g style="clip-path:url(#SVGID_00000118394492940840514670000005178077976855637664_);">
			<path class="st19" d="M466.6,271c4.8-6.2,8.4-14.6,11.7-21.7c0.5-1,3.8-8.8,4.3-9.1c0.2,0,0.2,1.4,0.2,1.4c0,1.2,0,2.2,0,3.3
				c-0.2,3.6-1.2,6.9-2.4,10.3c-4.1,9.8-10.8,17.9-16.5,26.5L466.6,271"/>
		</g>
	</g>
</g>
<path class="st19" d="M431,308.5c1.9-2.9,3.6-6.5,7.4-6.9c0.7,0,1.4,0,1.9-0.2c0.2,0,0.7,0,0.7,0c0.2,0.2-1,2.2-1,2.4
	c-1.4,2.6-3.3,4.5-5.7,6.5L431,308.5"/>
<g>
	<g>
		<defs>
			<rect id="SVGID_00000169548654356134099760000014983741502739156629_" x="59.6" y="222.8" width="428" height="315.4"/>
		</defs>
		<clipPath id="SVGID_00000059293172499325641180000010427932692337898118_">
			<use xlink:href="#SVGID_00000169548654356134099760000014983741502739156629_"  style="overflow:visible;"/>
		</clipPath>
		<g style="clip-path:url(#SVGID_00000059293172499325641180000010427932692337898118_);">
			<path class="st22" d="M274.7,360.9c0.2-0.2,5-4.1,8.8-5.5c4.3-1.7,7.9-0.7,7.6-0.7c1,0,1.7,0.5,2.4,1c1.2,0.7,2.2,1.9,2.9,3.6
				c1.4,2.6,2.4,6.7,3.1,8.6c0.7,1.9,1.4,4.1,1.7,6c0.5,0,0.7,0,1.2,0c2.9,0.2,3.3,0,5.5,0.2c8.4,0.5,18.9,2.6,29.2,6.7
				c7.2,2.9,14.3,6.5,20.3,11c1,0.7,5,4.1,5.7,4.8c1.9,1.9,3.6,3.6,5.3,5.7l2.6-5c0,0,3.1-5.3,3.8-6.9c0.7-1.2,8.1-15.1,10-18.6
				c-1.4-2.6-2.2-4.5-2.4-5c-0.2-1.2-0.2-2.9,0.7-4.8c0.7-1.4,1.9-3.1,2.9-3.8c2.6-1.4,1.4-2.9,2.2-5.5c0.7-1.2,1.7-2.2,2.6-2.6
				c0-1,0.2-2.4,1-3.6c1-2.2,2.9-4.3,4.3-4.8c0-0.7,0.2-1.7,0.5-2.4c3.3-6,8.6-5.5,8.6-5.5s7.2-12.9,8.1-14.8
				c0.5-0.7,5.5-10.3,6-11.2c-0.2-0.2-0.5-0.7-0.5-1.2c-0.2-0.7,0-1.7,0.2-2.4c0,0,2.2-3.3,3.1-5.5c-1-0.5-1.7-1-2.2-1.4
				c-2.6-1.9-4.8-4.3-5.3-6.5c-0.5-2.2,0-5,1-8.1c0,0,15.1-31.8,14.6-30.3c1.7-3.1,3.6-6,5.5-8.8c3.8-5.7,8.4-10.3,12.7-11.7
				c5.5-2.2,12.4-1.4,18.2-1c6.7,0.7,12.9,1.9,18.2,6.7c1.4,1.2,2.6,2.9,2.9,4.8c0.2,1.9,0,4.5-1,7.4c-1.9,5.7-5.7,12.4-7.6,15.5
				c-4.1,7.6-8.4,15.1-12.2,22.7c-2.9,5.7-5.5,11.2-8.4,15.1c-2.2,2.9-4.8,5-7.6,6.2c-1.7,0.5-5.5-0.2-9.8-1.9
				c-0.2,0.5-0.5,1-0.7,1.4c-0.5,1.2-1.2,2.4-1.9,3.6c-1.2,1.4-2.4,2.4-3.8,2.4c-0.7,0-1.4,0-2.4-0.2c-2.4,5-7.2,14.1-10.3,19.8
				c-1.7,2.9-3.1,5.7-4.8,8.6c1.9,2.4,3.6,4.8,4.5,6.7c1.4,2.9,5.3,18.4,6.9,28.9c0.7,5,1,9.1,0.5,10.8c-0.2,0.7-0.7,1.2-1.2,1.7
				c-0.2,1.9-0.7,3.8-1.2,5.7l-1,2.9c0.2,0.2,0.5,0.2,0.7,0.5c1.2,1,1.9,2.2,1.9,2.9c0,0.5,0,1.4-0.7,2.6s-2.6,3.1-3.1,3.6
				c-2.4,2.6-3.8,6.9-5.3,10.3c0.2,2.6,0.5,6.7-0.2,11.5c-1.2,8.8-4.8,19.8-6.7,26c-4.3,13.1-8.8,26.3-17,37.5
				c-1.4,1.9-2.9,3.8-4.5,6c-1.2,1.7-2.6,3.1-3.8,4.5c-3.1,3.1-6.5,5.5-10,6.9c-3.8,1.4-7.9,1.9-12.4,0.7c-0.2,0-0.5-0.2-1-0.2
				c-6-1.9-11.9-7.4-17.4-14.8c-0.2,6.5-1,11.7-1.7,20.1c0,0.7-0.5,10.8-0.5,10.8v0.2l-6.2,1.9c0,0,0.2-7.6,0.5-8.1
				c0.2-2.6,0.5-5,0.5-5.5c1.2-11.5,1.7-17.2,1.9-28.4c-0.2-0.5-1.7-2.2-2.9-3.6c-5.5-6-15.8-15.3-22.5-26.8c-5-8.4-7.4-17-8.8-23.4
				c-1-3.8-1.4-6.9-2.4-8.4c-0.2-0.5-0.2-1-0.2-1.7l4.1-45.6c-1.4,0-5.7-0.2-6-0.2l-3.8,44.7c0,0.5-0.2,1-0.5,1.4l-1.2,1.9
				c-0.5,1-1.4,1.2-2.4,1.2c-3.3,0-52.1,0-55.4,0c-1,0-1.9-0.5-2.4-1.2l-1.2-1.9c-0.2-0.5-0.5-1-0.5-1.4l-4.3-46.8
				c-0.5,0-1.2,0-1.7,0.2c-1.4,0.2-2.9,0.5-4.5,0.7l4.5,47.1c0,0.5,0,1-0.2,1.7c-2.2,4.3-5.5,25.1-13.9,38.2
				c-5.7,9.1-13.4,15.1-18.4,19.6c-1.4,1.4-2.9,2.6-3.6,3.6c-0.2,0.2-0.5,0.7-0.7,1v0.2c0.5,9.3,1.2,18.4,2.2,27.7
				c0,0.7,0.2,2.6,0.5,5.5c0,0.5,0.5,4.8,0.5,4.8l-6-1.9c0,0,0,0,0-0.2c-0.2-3.6-0.5-6.7-0.7-7.6c-0.5-5-1.2-13.9-1.7-21.5
				c-2.6,4.1-5.5,7.9-8.6,11.5c-6.7,7.9-13.6,13.6-20.6,15.1h-0.5c-9.1,1.4-16.5-2.9-22.2-10c-0.7-0.5-1.2-1.2-1.9-1.9
				c-0.5-1-1-1.9-1.4-2.6c-1.4-2.2-2.9-4.3-3.8-6.2c-6.9-12.2-10.3-25.6-13.1-39c-1.2-6.2-3.6-17.7-4.1-26.5
				c-0.2-4.8,0.5-9.1,1-11.5c-1-3.3-2.2-7.9-4.3-10.5c-0.5-0.5-2.2-2.6-2.6-3.8c-0.5-1.2-0.5-2.2-0.5-2.6c0.2-0.7,0.7-1.7,2.2-2.6
				c0.2,0,0.5-0.2,0.7-0.5l-0.7-2.9c-0.5-2.2-0.7-4.5-0.7-6.7c-0.2-0.2-0.2-0.7-0.5-1c-0.2-1.7,0.2-5.7,1.4-10.5
				c2.6-10.5,7.6-25.3,9.3-28.2c0.7-1.2,1.9-2.6,3.3-4.3c-1.9-3.8-4.1-7.6-6.2-11.5c-3.3-6.5-9.1-17.7-11.7-23.2
				c-3.6-0.2-7.6-1.9-11.5-4.5c-6.2-4.3-12.4-10.8-15.8-17c-7.2-12.7-4.1-27.5,6.2-33.2c7.2-3.8,15.1-1.9,20.6,0.5
				s9.6,9.1,12.2,13.9c2.6,4.8,3.6,11,4.1,15.5c0.5,4.1,0.2,7.2-0.7,11.9c-0.5,2.4-1.2,4.5-1.9,6.5c2.4,4.8,8.6,16.5,12.2,23.4
				c1.4,2.6,2.9,5.5,4.3,8.1c0.2-0.2,0.7-0.2,1-0.5c1.9-0.7,4.1-1,6,0c1.2,0.7,2.9,2.9,3.6,5.3c0.5,1.2,0.5,2.4,0.5,3.3
				c1.2,0.7,2.9,2.9,3.6,5.3c0.5,1.2,0.5,2.6,0.5,3.6c1,1,2.4,2.9,3.1,4.8c0.5,1.4,0.7,2.6,0.5,3.6c1,1,2.2,2.6,2.9,4.5
				c0.7,1.9,0.7,3.6,0.2,4.8c-0.2,0.5-1,1.7-1.9,3.3c3.3,6.5,6.9,13.1,10.3,19.6c0.2,0.5,1.9,3.6,3.8,7.2c2.6-4.3,6-8.1,9.8-11.2
				c10.3-9.1,23.9-14.6,33.9-18.2c2.2-1,5-1.7,7.6-2.4c0.7-0.2,5-1.2,7.2-1.4c1.9-0.2,4.1-0.5,6-0.7c0.2,0,0.5,0,0.5,0
				c0-2.2-0.2-5.3,0-7.4c0-1-0.2-6.2,1.9-7.2c2.2-1,8.1,1.2,11.2,1.9c2.2,0.5,8.8,2.2,13.1,5.3c4.1,3.1,6,7.6,6.9,9.8
				C265.4,368.5,269.7,364.2,274.7,360.9z M217.8,377.9c-2.9,0.7-6,1.7-8.1,2.6c-7.9,2.9-18.4,7.2-27.2,13.4
				c-6.2,4.5-11.9,10-15.3,17c1.9,3.8,3.8,7.4,4.3,8.8c0.7,2.2,1.2,4.3,1.2,5.7s-0.2,2.6-0.7,3.6c-1.7,3.3-4.1,2.6-5.3,2.6
				c-1-0.2-1.7-0.5-2.6-1.4c-1.4-1-3.1-3.1-4.8-5.5c-2.9-4.1-6-9.6-8.4-14.3l-34.2,15.1c-0.5,2.2-1,5.5-0.7,9.6
				c0.2,8.6,2.6,19.6,4.1,25.8c2.6,12.9,5.7,25.8,12.4,37.3c1,1.9,2.4,3.8,3.6,6l0,0c0.5,0.7,6.9,11.9,15.3,11.7
				c8.4,0,16-6.2,21.5-12.7c3.8-4.5,7.6-9.8,11-15.1c1.2-1.9,1-1.4,1.7-2.9c0.7-1.7,2.4-2.9,4.1-4.1c0.5-0.2,1.7-1.2,1.9-1.4
				c4.8-4.3,11.9-10,17.4-18.6c7.9-12.2,11.2-31.3,13.4-36.8L217.8,377.9z M298.3,450.5c-0.2-1.2-1.4-2.2-2.9-2.2H236
				c-1.4,0-2.6,1-2.9,2.2c0,0-5,20.3-4.5,35.1c0.2,7.2,1.9,13.4,5.5,16.3c2.2,1.9,5.7,3.3,10.3,4.5c6,1.4,13.6,2.2,21.5,2.2
				c7.6,0,15.3-0.7,21.5-2.2c4.5-1.2,7.9-2.6,10.3-4.5c3.6-2.9,5.3-8.8,5.5-16.3C303.1,470.8,298.3,450.5,298.3,450.5z M313.4,379
				l-3.8,44.9c0.5,1.4,1,3.3,1.7,6c1.4,6.2,3.6,15.5,9.1,24.6c6,10,15.1,18.6,20.6,24.4c0.5,0.5,1,1,1.4,1.7
				c0.5,0.2,1.4,1.2,2.6,3.1c0.5,1,1.2,1.9,1.7,2.9c1,1.7,2.2,3.3,3.1,4.8c2.4,3.6,10,13.6,17.2,15.1c6.9,1.4,12.7-3.3,16.3-6.9
				c3.8-3.6,6.2-7.4,7.4-9.1c3.1-4.3,5.5-8.8,7.9-13.4l5.5-14.1c1-2.6,1.9-5.5,2.6-8.4c1.9-6,5.3-16.7,6.5-25.1
				c0.2-1.7,0.5-3.3,0.5-4.8l1-4.3l-30.6-17.2c-2.4,4.3-5,8.8-7.4,12.4c-1.7,2.4-3.3,4.3-4.5,5.3c-0.5,0.2-1.9,1-3.6,0.7
				c-1.7-0.2-3.6-1.2-4.3-2.4c-0.5-1-0.7-1.9-0.7-3.1c0-1.7,0.5-3.6,1.2-5.5c0.2-1,1-2.6,1.7-3.8c-6.7-9.8-18.4-17.2-30.6-21.7
				C328,381.9,320.3,380,313.4,379z M293.1,454.1h-54.7c-1.2,5.5-4.1,20.1-3.8,31.3c0,2.9,0.5,5.5,1,7.6c0.5,1.9,1.2,3.3,2.2,4.1
				c1.7,1.4,4.5,2.4,7.9,3.3c5.5,1.4,12.7,2.2,19.8,2.2c7.2,0,14.3-0.7,20.1-2.2c3.3-1,6.2-1.9,7.9-3.3c1-1,1.7-2.4,2.2-4.1
				c0.7-2.2,1-4.8,1-7.6C297.1,474.2,294.3,459.6,293.1,454.1z M244.3,465.3c12.4-0.7,32.3-1,44.7-0.2c1.7,0,2.9-1.2,3.1-2.6
				c0-1.7-1.2-2.9-2.6-3.1c-12.7-0.7-32.7-0.5-45.4,0.2c-1.7,0-2.9,1.4-2.6,3.1C241.2,464.1,242.7,465.3,244.3,465.3z M146.6,384.3
				c-0.5,1-1.2,1.9-1.7,2.6c1.9,3.8,4.1,7.4,6.2,11.2c1.9,3.6,7.9,15.8,12.9,22.9c1,1.4,1.9,2.6,2.9,3.6c0-1-0.5-2.2-1-3.3
				c-2.4-6.9-8.4-16.5-10.5-20.6C152.3,395.5,149.5,389.8,146.6,384.3z M295.2,385c0-1,0.2-1.9,0.2-2.9c0-0.5,0-1,0-1.7
				c-6.2,1.7-13.6,1.7-18.9,1.9c-13.9,0-27.7-0.7-41.1-4.3v0.2c0,0.5,0,1,0,1.4l4.3,42.1h52.1L295.2,385L295.2,385z M141.8,393.9
				c-0.2,0-0.2,0.2-0.5,0.2c-8.4,3.6-16.5,7.4-24.9,11.2c-0.7,0.2-3.1,1.2-5.3,2.4c-0.5,0.2-0.7,0.5-1.2,0.5l1.2,1.7
				c1.9,2.6,3.1,6.2,4.3,9.6l32.3-14.3c-1-1.7-1.7-3.1-2.2-3.8C144.4,398.6,143,396.3,141.8,393.9z M388.2,378.1
				c-2.6,5-5.3,10-8.1,15.1c-1.9,3.8-7.6,12.9-10,19.6c-0.2,1-0.7,1.9-0.7,2.9c0.7-1,1.7-1.9,2.4-3.1c4.8-6.9,10.5-18.4,12.4-21.7
				c1.9-3.3,3.6-6.5,5.5-9.8C389.2,379.8,388.7,379,388.2,378.1z M393,386.9c-1,1.9-1.9,3.6-3.6,6.2c-0.5,1-1.4,2.6-2.6,4.8l28,15.8
				c1.4-3.3,3.1-6.7,5.3-9.1l1.2-1.4c-0.2-0.2-0.7-0.5-1-0.7c-2.2-1.2-4.5-2.6-5-2.9C407.6,395.5,400.4,391.2,393,386.9z
				 M110.7,395.8c0,1.2,0.2,2.2,0.5,3.3l0.5,1.7c1.2-0.5,2.2-1,2.4-1c2.4-1.2,5-2.2,7.4-3.3C117.2,396.5,113.4,396.3,110.7,395.8z
				 M421.7,391.2c-2.6,0-6.2,0-10-0.2c2.2,1.2,4.3,2.6,6.5,3.8c0.2,0.2,1.2,0.7,2.4,1.2l0.5-1.7
				C421.2,393.4,421.7,392.4,421.7,391.2z M134.4,345.6L134.4,345.6c-0.5,0-0.7,0.2-1,0.2c-4.5,1.7-11,7.6-13.4,11.7
				c-1.7,2.6-6.2,16.7-8.6,26.5c-0.5,2.4-1,4.5-1.2,6c3.3,0.5,9.8,1,16,0.5c2.9-0.2,5.5-0.7,7.9-1.7c1.9-0.7,3.6-1.7,4.5-3.3
				c3.8-5.7,7.2-10.8,7.9-12.2c0-0.2-0.2-1-0.5-1.4c-0.2-0.5-0.7-1-0.7-1.4l0,0c-1.2,0-2.4-0.5-2.9-1.7c-0.5-1-0.5-2.4,0.5-3.3
				c0.2-0.2,0.5-0.5,0.5-0.7c0-0.2-0.2-1-0.5-1.4c-0.2-0.5-0.7-1-1-1.4h-0.2c-1.2,0.2-2.6-0.2-3.1-1.4c-0.5-1.2-0.5-2.4,0.5-3.3
				c0.2-0.2,0.7-0.7,0.7-1s-0.2-1-0.5-1.4c-0.2-0.5-0.7-1.2-0.7-1.4l0,0c-0.2,0-0.5,0-0.7,0.2c-1.2,0.5-2.6,0-3.6-1.2
				c-0.7-1.2-0.5-2.6,0.2-3.6c0.5-0.5,1-1,1-1.2c0-0.2-0.2-1-0.5-1.4C134.9,346.5,134.6,345.8,134.4,345.6z M404.4,339.4l-1.7,3.3
				c0,0-0.2,0-0.2-0.2l0,0c1,1,1,2.6,0,3.6c-1,1-2.4,1.4-3.6,0.7c-0.2,0-0.5-0.2-0.7-0.2l0,0c-0.2,0.2-0.7,1-1,1.2
				c-0.2,0.5-0.5,1-0.5,1.2s0.5,0.7,0.7,1c0.7,1,0.7,2.4,0,3.3c-0.7,1-2.2,1.4-3.3,1.2h-0.2c-0.2,0.2-0.7,1-1,1.2
				c-0.2,0.5-0.5,1-0.5,1.2s0.2,0.5,0.5,0.7c0.7,1,0.7,2.4,0,3.3c-0.7,1-1.9,1.4-3.1,1.2l0,0c-0.2,0.2-0.7,1-1,1.2
				c-0.2,0.5-0.5,1-0.5,1.2c0.7,1.7,3.6,7.2,6.9,13.6c1,1.7,2.4,2.6,4.3,3.6c2.4,1.2,5,1.9,7.9,2.4c6.2,1,12.7,1,16.3,1
				c0-1.7-0.5-3.6-0.7-6.2c-1.4-10-5-24.6-6.2-27.2C414.2,348,408.8,341.8,404.4,339.4z M296.4,375c-0.2-1.9-1-3.8-1.4-5.7
				c-0.5-1.7-1.2-4.5-2.2-6.9c-0.5-1-1-2.2-1.7-2.6c-1-0.5-1.9-0.2-3.1,0c-1.7,0.5-3.3,1.2-4.5,1.7c-7.4,3.3-13.4,8.6-17.4,15.3
				c3.6,0,6.9,0.2,10.5,0C282.1,377.1,290.7,377.1,296.4,375z M258,376.7c-1.9-4.5-3.3-7.2-5.5-9.1c-2.4-1.9-5.7-2.6-11.7-3.8
				c-1-0.2-3.3-1-5.5-1c-0.2,0-0.7,0-1,0c0,0.7-0.2,1.7-0.2,2.6c0,2.4,0,5.3,0.2,7.2C242.2,374.7,250.1,375.9,258,376.7z M107.2,278
				c-0.2-0.7-0.7-1.2-1-1.9c-5.3-9.6-15.8-14.3-23.7-10c-7.9,4.3-9.3,15.5-4.1,25.3c3.1,5.5,8.4,11.2,13.9,15.1
				c3.3,2.2,6.9,3.8,9.8,3.6c1.2,0,2.2,0.5,2.9,1.7c2.2,4.5,8.6,17.4,12.4,24.6c1.7,3.3,3.6,6.7,5.3,9.8c1-0.7,1.7-1.4,2.6-2.2
				c-1.4-2.9-2.9-5.5-4.5-8.4c-4.1-7.6-11.2-21.5-13.1-24.9c-0.5-1-0.5-1.9,0.2-2.9c1.9-2.9,2.6-6.9,2.6-11.2
				c0-3.6-0.2-7.4-1.2-10.8C108.6,282.7,107.9,280.3,107.2,278z M424,310.5c-3.1,5.7-7.9,14.8-10.8,20.3c-1,1.9-1.9,3.8-3.1,5.5
				c0.7,0.7,1.4,1.2,2.4,1.9c1.2-2.4,2.6-4.8,3.8-7.2c2.9-5.3,7.2-13.9,10-19.6C425.7,311.2,424.8,310.7,424,310.5z M459.7,267.2
				L459.7,267.2c-1.7-2.2-3.8-3.3-6-4.8c-1.9-1.2-7.2-3.6-9.8-3.8c-0.2,0.2-0.5,0.5-0.7,0.7c-0.5,0.7-0.7,1.4-1,1.9
				c-2.9,5.3-5.5,10.5-8.1,16c-1,1.9-3.6,6-5.3,9.8c-1,1.9-1.9,3.6-1.9,4.8c0,0.7,0.5,1.9,1,2.9c0.2,1.2,0.5,2.6,0.2,3.8
				c-0.2,1.4-1.4,3.8-2.6,5.7c1.4,1,3.3,1.9,5,2.9c1,0.5,2.4,1,2.9,1.2c0.2-0.2,0.7-1,1-1.2c1-1.9,1.9-3.6,2.6-4.5
				c0.7-0.7,1.7-1.2,2.6-1.4c1-0.2,1.9-0.2,2.9-1.2c2.4-2.6,3.3-6.2,4.5-9.1c1.2-2.9,2.6-5.5,4.1-8.1c2.4-4.3,4.8-8.4,6.9-12.7
				c0.2-0.5,0.7-1.2,1-1.7C459.2,267.9,459.4,267.4,459.7,267.2z M447.2,303.3c0.5,0,1,0,1.2,0c2.4-1,4.3-3.1,6.2-6
				c2.2-3.3,4.3-7.6,6.5-12.2c3.8-7.6,8.1-15.3,12.4-22.9c1.4-2.6,4.3-7.9,6.2-12.7c1.2-2.6,1.9-5.3,1.7-6.9c0-0.7-0.7-1-1.2-1.4
				c-4.1-3.8-9.3-4.5-14.6-5.3c-5-0.5-10.8-1.4-15.5,0.5c-3.3,1.4-6.7,5.3-9.8,9.8c-5.3,7.4-9.6,17-11.9,22.2
				c-1.2,2.4-4.3,7.9-6.5,13.1c-1.2,2.9-2.2,5.5-1.7,7.2c0,0.5,0.5,1,1,1.4c0.2-1.2,0.7-2.6,1.4-4.3c1.9-4.1,5-9.1,6.2-11.5
				c2.6-5.5,5.5-11,8.4-16.3c0.5-1,1.7-3.1,2.9-4.3c1-1,2.2-1.4,3.6-1.4c2.9,0,10.5,2.9,13.4,4.8c2.6,1.7,5.5,3.6,7.4,6
				c1,1,1.4,2.6,1.4,3.8c-0.2,1.9-1.4,3.6-2.2,5c-2.2,4.3-4.8,8.6-6.9,12.9c-1.4,2.6-2.9,5.3-4.1,7.9
				C450.8,296.6,449.6,300.4,447.2,303.3"/>
		</g>
	</g>
</g>
<path class="st2" d="M154.7,272.7c0-2.4-3.6-3.8-5.5-4.3c-5.5-1.4-10.5,0-14.3,4.3c-2.4,2.6-3.6,6-4.3,9.3
	c-1.7,6.2-2.2,13.9,2.2,19.4c2.6,3.3,6.9,5,10.8,6.5c6.7,2.2,18.6,3.6,25.6,3.6L154.7,272.7z M357.4,241.6c0-2.2,2.6-4.3,4.1-5.5
	c6-4.1,14.1-1.9,19.4,2.4c8.8,6.9,9.6,19.4,3.3,28.2c-4.8,7.2-16,13.4-24.6,14.6L357.4,241.6"/>
<path class="st14" d="M167.1,190.3c-4.1,9.3-8.6,18.9-10.3,29.2c-2.6,17-0.7,34.9,0,52.1c0.5,11.2,4.8,23.4,9.3,34.2
	c2.6,6,4.5,13.4,8.4,18.4c16.7,21,25.3,32.3,51.1,36.6c4.8,0.7,14.1,3.3,18.6,4.8c14.6,4.3,27,2.2,40.9-2.4
	c7.2-2.4,15.1-4.1,21.7-7.2c8.1-3.8,8.4-8.6,20.8-16.5c9.8-6.5,22.5-24.6,27.7-48.3c5.7-26-1.2-55.9-6.9-77.2
	c-4.5-17.4-6.5-45.4-16.5-51.9c-3.1-1.9-76.9,7.2-104.7,11.7C207.1,176.9,167.1,190.3,167.1,190.3"/>
<path class="st2" d="M361.2,228c-1.4-5.5-10-45.2-24.6-60.9c-16.7-17.9-98,4.8-137.4,23.2c-6.2,2.9-6.7,11.2-8.4,18.2
	c-3.6,13.6-9.1,26.8-15.5,43c-1.2,2.9-7.9,13.4-7.9,16c0,4.3,0,8.4,0.5,12.4c3.8,44.9,32,60.9,36.1,63.6c6.7,4.3,47.3,27,66.2,23.4
	c11.2-2.2,30.8-9.1,52.3-20.8c6.5-3.6,17-14.6,25.6-32.7c10.8-22.7,10.5-58.1,7.6-72.4C356.4,235.4,362.4,232.6,361.2,228"/>
<path class="st23" d="M281.4,362.1c6.9-3.3,16.5-8.6,22.9-12.7c9.8-6,32-23.7,40.6-49c7.2-21.5,5.7-45.4,1-73.4
	c-2.4-13.9-5.3-28.4-13.4-40.4c-4.1-6-8.8-11.2-12.7-17.2c-0.2-0.2-1.4-1.9-1-2.2c0.7-0.7,3.3,1.4,3.8,1.9
	c14.6,10.3,22.2,27.5,26.3,44.2c1.9,8.4,5.7,22,7.4,31.8c4.1,25.1-0.7,56.2-11.9,75.3c-4.8,8.1-14.1,18.6-23.4,25.1
	c-10.3,7.2-36.1,17-36.1,17C283.3,363.5,281.4,362.1,281.4,362.1"/>
<path class="st24" d="M283.3,166.1c2.6,4.8,5.7,9.3,8.6,13.9c2.6,4.1,4.5,8.6,7.4,12.7c7.9,11.2,19.1,21.3,30.6,28.9
	c4.3,2.9,9.1,6,14.1,7.4c3.3,1,6.7,1,10,1c5.5,0,9.1,0,8.6-6.2c-0.2-2.9-1-5.5-2.4-8.1c-5.5-10.8-15.5-19.8-24.1-28.4
	c-8.6-8.8-17.7-17.7-27.7-25.1L283.3,166.1"/>
<path class="st3" d="M154.7,267.2c8.6-9.8,16.3-21.5,21-33.9c3.6-9.1,5.7-18.9,8.8-28c1-2.6,4.8-20.6,2.6-21.5
	c-1-0.7-9.1,2.6-10.3,3.1c-9.8,3.3-19.6,6.5-29.2,10c-6.5,2.4-17.4,6.2-22.5,10.8c-1,1,0,17,0,18.6c-0.7,13.1,2.9,20.8,6.9,33.2
	c0.7,1.7,4.8,10,6,9.3L154.7,267.2z M357.8,236.1c-10.8-5.5-26.8-17-37.8-29.9c-6-6.9-8.8-12.2-15.3-18.6
	c-3.6-3.6-15.5-16.3-15.1-21.7c0.2-1.7,19.1-4.1,22-4.5c18.6-2.4,43.3,0,61.7,3.6c4.5,1,5.3,15.8,5.5,17.9
	c1.9,11.9-6.2,46.8-6.9,46.6C368.1,234,363.6,240,357.8,236.1"/>
<g>
	<g>
		<defs>
			<rect id="SVGID_00000062882057568879871580000014637083659103309716_" x="59.6" y="-41.8" width="372.8" height="250.2"/>
		</defs>
		<clipPath id="SVGID_00000140012356677327642500000018082529160328393892_">
			<use xlink:href="#SVGID_00000062882057568879871580000014637083659103309716_"  style="overflow:visible;"/>
		</clipPath>
		<g style="clip-path:url(#SVGID_00000140012356677327642500000018082529160328393892_);">
			<path class="st26" d="M148.3-24.6c3.6-0.7,7.2-1.2,10-1.4c26.8-1.7,48.8,3.3,66,21.5c1.7-4.3,3.6-8.4,5.7-11.7
				c12.2-17.9,39-25.6,59.3-17.4c6.5,2.6,12.2,6.9,17.2,11.9c2.4,2.4,5.3,5,7.6,8.1c2.9-0.5,5.5-1.7,8.4-2.4
				c11.2-3.3,22.5-5,34.2-4.3c21,1.4,33,8.8,44.2,26.3c2.4,3.8,7.6,11.5,8.8,17.2c0.5,1.2,1,2.4,1.4,3.3c9.1,21,11.2,49.7-5,68.1
				c-12.7,14.3-23.4,18.6-40.1,19.8c1,4.1-4.1,6-1.9,8.1c3.1,3.1,9.8,1.2,12.4,4.3c3.1,3.6,4.5,22.7,5.3,28c0,1,1.2,8.8,0.2,9.1
				c-3.8,1.2-9.3-0.7-13.1-1.2c-4.1-0.5-8.1-1-12.2-1c-12.7-0.7-67.9,1.2-77.4,3.1c-6,1.2-11.9,2.6-18.2,3.8
				c-8.8,1.7-17.4,2.4-26.3,4.5c-15.5,3.6-37.3,7.2-55.4,12.7c-19.4,5.7-55.7,24.1-60.7,22.5c-2.4-0.7-11.9-30.1-10.8-32.5
				c1.7-3.6,16.5-15.8,19.4-17c1.2-8.4,7.9-22,15.1-32.3c-20.1,8.1-44.7,6.9-60.7-4.5c-16-11.2-18.6-28.4-18.4-46.4v-0.2
				C61,61,65.1,45,71.1,32.1c4.8-10.3,11.9-18.9,19.8-27C107.9-12.2,127.5-22,148.3-24.6"/>
		</g>
	</g>
</g>
<path class="st27" d="M233.8,169.5c-5,1-9.8,2.2-11,2.4c-24.6,6-48.5,14.8-72.4,23.4c-7.6,2.9-15.5,5.3-22.9,8.8
	c-1,0.5-5.5,3.8-6.7,3.1c-1.7-1.2-11-24.6-12.2-28.7l5.5-8.1c3.3,9.6,16.7,11.7,25.3,12.2c23.2,1.7,45.4-5,67.9-8.8
	C216.1,172.3,225,170.9,233.8,169.5c6.9-1.4,14.6-2.6,16-1.9c0.2,0.2-0.7,0.2-1,0.2c-1.2,0-2.4,0.2-3.6,0.2
	c-3.3,0.2-6.5,0.7-9.8,1.2C234.8,169.5,234.3,169.5,233.8,169.5z M319.6,97.8l-3.1-2.4C317.7,96.1,318.7,96.8,319.6,97.8l9.6,7.2
	c6.5,6.9,30.8,9.1,33.9,9.3c4.8,0.5,2.6,1.9,3.6,6.5c0.5,2.4-62.9,0.5-67.2,0.5c-2.6,0-14.3,2.6-16.3,1.7c-0.2,0,2.2-0.5,2.4-0.5
	c1.4-0.2,5-2.4,6.2-2.6c4.5-0.5,9.1-1.2,13.4-2.6c5-1.4,11.2-3.3,14.3-7.9C321.5,106.4,321.8,101.1,319.6,97.8z M210.2,132.9
	c-2.4,0.5-4.5,1.2-6.9,1.9c-5.5,1.4-11,3.1-16.3,4.8c-8.1,2.6-16.3,5.5-24.4,8.4c-11.7,4.1-23.9,6.9-35.6,11l14.3-27.5
	c-1,8.1,13.4,8.1,18.4,8.1c15.3,0.2,30.3-2.9,45.2-5.7C206.1,133.6,208,133.4,210.2,132.9c2.4-0.7,4.8-1.2,7.2-1.9
	c1.7-0.5,3.6-1,5.3-1.2c1.9-0.5,2.4-0.5,2.4-0.5C222.6,130.8,215.7,131.9,210.2,132.9z M79.7,18.9c-2.4,4.1-4.3,8.1-5.7,12.4
	c-2.9,8.1-3.3,17-3.3,25.6c0,22.7,6.2,38,28,47.1c13.4,5.5,28,6.2,41.8,2.4c8.1-2.2,15.8-5.5,23.9-7.9c0.2,0,2.9-1.2,2.9-0.7
	c0.2,0.5-2.2,2.4-2.4,2.9c-4.3,4.5-8.1,9.3-12.2,14.3c-3.3,4.1-6.7,9.8-11.2,12.9c-5.5,3.6-19.4,3.3-25.6,3.3
	c-10.8,0-27.7-4.1-36.6-10.5c-23.9-17.4-17-65-6.7-89.9L79.7,18.9c2.9-5,6-9.8,8.8-14.3L79.7,18.9z M237.4,10.1
	c-2.9-5.3,0.7-22.7,2.4-28.2c0.7-2.4,1.7-4.8,2.9-6.9c0.7-1.2,1.7-2.9,1.7-2.9c-0.2,0-2.9,1.9-3.1,2.2c-3.1,2.4-6,5-8.6,8.1
	c-2.4,2.9-5.3,6.7-6.9,10L237.4,10.1"/>
<g>
	<g>
		<defs>
			<rect id="SVGID_00000044168916164492756050000014728345720199319685_" x="102.6" y="-41.8" width="329.8" height="207.2"/>
		</defs>
		<clipPath id="SVGID_00000031914461506972488680000016422198860177920921_">
			<use xlink:href="#SVGID_00000044168916164492756050000014728345720199319685_"  style="overflow:visible;"/>
		</clipPath>
		<g style="clip-path:url(#SVGID_00000031914461506972488680000016422198860177920921_);">
			<path class="st5" d="M381.3,156.3c-1.9-9.1-8.8-13.9-18.4-17.9c-27.7-11.9-56.2-9.1-85.3-8.8c-2.9,0-32.3-1.4-33.2-2.9
				c-0.2-0.2,2.2-0.2,4.8-0.2c3.3,0,6.5-0.2,9.8-0.5c10.8-0.7,21.3-1.9,31.8-2.6c22.7-2.2,61.9,0,86.5,3.3L381.3,156.3
				c0.2,1,0.2,1.7,0.5,2.6l0,0c0,1,0,1.9,0,3.1V159L381.3,156.3z M314.8,94.4c12.2,8.1,28.7,10.8,43.3,10c10.5-0.5,19.4-3.8,27.7-10
				c18.4-13.6,21.5-30.1,19.6-51.9c-1.4-14.8-5.3-28.4-14.3-40.6c-8.8-11.5-20.6-18.4-33.7-23.7c-0.2,0,0.5,0.2,0.7,0.2
				c0.7,0.2,1.4,0.5,2.2,0.7c2.6,1,16.5,2.4,22.9,6.2c6.2,3.6,15.5,16,19.8,21.7c6.2,8.8,14.3,26.8,15.5,37.5
				c2.6,22.2-3.3,51.6-25.6,62.6c-7.9,3.8-17,4.3-25.6,5.5c-10.3,1.2-22.2-1.2-32.3-4.8L314.8,94.4c-0.2,0-0.2-0.2-0.5-0.2
				L314.8,94.4z M236.2,10.3c-22.7-19.4-53.5-31.5-83.6-32c-8.4-0.2-16.7,1-25.1,2.9c-1.4,0.5-9.8,3.3-11,3.1c0,0,1.7-1,2.9-1.4
				c3.6-1.7,7.2-3.1,10.8-4.5c8.6-3.6,15.8-5,24.9-6.9c19.4-3.6,42.8,0.7,58.5,13.4c6.2,5,11.9,11.2,17,17.2L236.2,10.3z
				 M315.3-11.7c-4.3-1.4-8.1-4.5-12.2-6.5c-4.8-2.2-9.6-3.6-14.3-5.5c-6.9-2.4-14.1-5-21.5-6c-5.5-0.7-11.5-0.7-17,0.2
				c-2.2,0.2-4.3,1-6.2,1.7c-0.7,0.2-1.4,0.5-1.9,1c-0.2,0-1,0.5-0.7,0.2c2.4-2.2,7.9-4.8,10.8-6.5c11.7-6.2,19.4-6,31.8-1.9
				c3.8,1.2,8.4,2.9,11.5,5.5c2.6,2.2,7.2,2.4,9.3,5L315.3-11.7"/>
		</g>
	</g>
</g>
<path class="st29" d="M411.6,162.5c-0.5-3.6-4.5-7.6-7.9-5c-5,4.1-0.5,18.4-0.5,18.4c8.4,2.9,14.1-1.9,15.8-6.7
	C420.7,164.7,418.8,159.9,411.6,162.5"/>
<path class="st29" d="M83.3,238.5c4.1,4.8,23.9,3.1,23.9,3.1c-1-6.7-2.4-16.3-8.1-20.6c-2.6-2.2-9.3-1.4-8.8,3.1
	c0,1.7,1,3.1,1.9,4.5c-2.2-0.5-4.8-0.5-6.7,0.2C81.1,230.2,80.4,235.2,83.3,238.5"/>
<path class="st29" d="M392,300.7c0,0-1.7-3.6-3.6-6c-4.1-4.5-10-2.6-11.5,2.9c-2.6,9.1,7.9,22.2,7.9,22.2c6.9-1,13.1-2.6,19.1-6.5
	c3.1-1.9,5.7-4.8,5.5-8.8C409.2,294.9,396.8,293.3,392,300.7"/>
<path class="st14" d="M132,299.2c1.2,0.2,4.1,2.4,5.5,3.1c4.5,2.2,9.6,2.9,14.6,2.9c3.1,0,6.2-0.7,8.8-1.9c0.5-0.2,3.3-1.9,3.6-1.9
	c0.7,0.2,1.9,4.1,2.4,4.8c1,1.7,1.9,3.3,2.6,5c0.2,0.5,0.7,1.2,0.2,1.7c-0.7,1-2.6,1.2-3.8,1.2c-1,0-2.2,0.2-3.1,0.2
	c-8.8,0.5-20.8-3.8-28-9.1L132,299.2z M360.2,272.9c2.2,0,4.8-1.7,6.5-2.6c5.7-3.3,11.9-7.2,15.8-12.7c1.4-1.9,2.2-4.1,2.9-6.5
	c0-0.2,0.7-2.6,0.7-2.9c0,0,0,0,0.2,0c0.5,1,0.5,2.6,0.7,3.8c0.5,4.1,0.2,8.4-1,12.2c-0.7,2.6-2.2,4.8-3.8,6.9
	c-4.8,5.5-15.1,11.5-22.7,11.5L360.2,272.9"/>
<path class="st23" d="M129.9,294.2v-13.6c1.7-7.2,6.7-11.7,14.3-12.4c2.6-0.2,5.3,0.5,7.9,1.4c1,0.2,2.2,1,2.2,1.2h-0.7
	c-1,0-1.9,0-2.6,0.2c-3.1,0.2-6.2,1.2-8.8,2.6C134.2,278,130.3,285.8,129.9,294.2v3.6C129.9,296.6,129.9,295.4,129.9,294.2z
	 M356.4,251.9c1-7.6,9.6-12.2,16.5-12.7c2.6-0.2,5.3,0.2,7.6,1c1,0.2,1.9,0.7,2.6,1.2c0.2,0.2,0.5,0.2,0.7,0.5c0,0,0.5,0.2,0.2,0.2
	c-3.1-3.8-7.4-7.2-12.2-8.4c-7.2-1.7-14.8,2.9-18.2,9.1L356.4,251.9"/>
<path class="st22" d="M325.1,340.8c1.2,6.9,6,11.9,10.5,13.6c2.6,1,5.5,1.7,8.6,3.3c8.6,4.3,14.3,11.5,14.3,21.3
	c0,1.7-0.5,6.9-1.7,10.5c-0.2,0.7-0.5,1.2-0.7,1.7c0,0.2-0.2,0.5-0.2,0.5c-1,0.7-1.4,1.9-0.7,2.9c0.7,1,1.9,1.4,2.9,0.7
	c1.2-0.7,2.2-2.4,2.9-4.5c1.4-4.1,1.9-10,1.9-11.9c-0.2-11.5-6.7-20.1-17-25.1c-3.1-1.7-6.2-2.4-9.1-3.3c-3.3-1.2-6.9-5.5-7.9-10.5
	c-0.2-1.2-1.4-1.9-2.6-1.7C325.8,338.7,325.1,339.9,325.1,340.8z M326.1,365.9c1.2,3.1,4.5,5.3,6.9,7.2c3.3,2.6,5.5,6.5,6.5,10.8
	c0.2,1,1,1.4,1.9,1.2c1-0.2,1.4-1,1.4-1.9c-1-5-3.6-9.6-7.6-12.7c-1.2-1-2.4-1.7-3.6-2.6c-1-1-1.9-1.9-2.4-2.9c-0.2-1-1.2-1.2-2.2-1
	C326.1,364.2,325.6,365.2,326.1,365.9z M307.9,356.1c0.5,2.4,0.5,4.5,0,7.2c-0.5,1.9-1.9,4.8-2.9,7.4c-0.7,2.2-1,4.3-0.2,6.2
	c0.5,1,1.4,1.2,2.2,1c1-0.2,1.2-1.2,1-2.2c-0.7-1.4,0-3.3,0.7-5c1-2.4,2.2-4.5,2.4-6.5c0.7-2.9,0.5-5.5,0-8.4c0-1-1-1.4-1.9-1.4
	C308.4,354.2,307.9,355.1,307.9,356.1"/>
<g>
	<g>
		<defs>
			<rect id="SVGID_00000106118462573237881910000007954460939060005519_" x="46.7" y="-41.8" width="385.7" height="422.3"/>
		</defs>
		<clipPath id="SVGID_00000123432517086764074560000002652053216188709536_">
			<use xlink:href="#SVGID_00000106118462573237881910000007954460939060005519_"  style="overflow:visible;"/>
		</clipPath>
		<g style="clip-path:url(#SVGID_00000123432517086764074560000002652053216188709536_);">
			<path class="st22" d="M284.5,364.5c-9.6,2.9-17.4,6.7-24.6,6.2c-11.2-0.7-24.1-3.3-23.9-3.6c-1.9-0.5-4.3-1-6.7-1.7
				c-14.1-3.8-34.2-12.2-48.8-30.6c-4.3-5.3-8.4-11.9-11.9-19.4c0.2-0.2,0-0.2,0,0c-0.2,0.2-0.5,0.5-1,0.5c-5.7,1.7-18.4-1-23.7-3.1
				c-8.8-3.6-13.9-8.8-16.5-14.6c-3.8-8.8-1.9-18.9,3.1-25.6c0.7-1,1.7-1.9,2.6-2.9c-8.4-21.3-11.9-39.7-9.6-58.8
				c-1.4,0.2-3.3,0.5-3.3,0.5c-0.7,0-1.4-0.2-2.2-1c-0.7-0.5-1.4-1.7-1.9-3.1c-1.9-4.1-3.6-11.5-4.1-12.9c-1.9-6-5-10.8-5.5-15.5
				c-0.2-3.8,0.7-7.4,5-11.5c1.2-1.2,5.3-4.3,12.2-8.1v-0.2c3.1-9.6,7.2-18.4,11.9-26.8c-1.4,0.5-3.1,0.7-4.5,1.2
				c-5.5,1-11.2,1.4-16.3,1.9c-49,3.8-67.6-50.7-49.2-98.5c13.4-35.4,46.8-66.9,102.5-67.4c15.3-0.2,29.4,3.1,41.1,9.8
				c5.5,3.1,10.3,6.7,14.8,11.2c0.7-1.9,1.7-3.8,2.9-5.5c2.6-3.8,6.5-7.4,10-10.3c13.1-10,28.2-14.1,42.3-11.7
				c13.6,2.2,26.3,9.8,35.4,23.2c6-2.4,12.4-4.1,18.9-5.3c7.2-1.2,14.6-1.7,21.5-1.7c5,0,10,0.5,15.1,1.4c5,1,10,2.6,14.6,5.5
				c4.5,2.6,8.4,6,11.7,9.8c5,5.5,9.1,11.9,12.7,18.6c12.9,23.7,15.5,49.2,7.6,69.1c-7.2,18.2-23.2,31.5-48.8,33.9
				c0,0.2,0,0.5,0,0.5c0.2,1.7,0.5,3.3,0.7,5c7.4,1,10.8,3.3,12.7,7.2c1.9,3.8,1.7,9.8,2.2,18.2c0,1.4,1,9.6,0.7,14.3
				c0,1.9-0.2,6-0.5,6.7c0,0,0,0,0,0.2c0,0-3.1-0.5-6.9-1c7.6,18.9-0.2,43.7-1.9,63.3c3.1,1,6,2.6,8.6,5c6.2,5.7,10,15.1,7.6,24.4
				c-1.4,6.2-5.5,12.4-13.4,17.4c-4.5,2.9-11.5,5.7-17.2,6c0,1.4-0.2,2.6-0.5,3.6c-5.5,34.4-29.4,63.6-73.6,76.5
				C285.2,364.5,284.7,364.5,284.5,364.5z M354.5,285.8c0-0.5,0-1,0.2-1.4c2.2-16.3,0-34.4-2.6-47.6c0-0.2,0-0.2,0-0.5
				c-1.2-0.5-2.4-1-3.3-1.7l-0.2-0.2l0,0c-0.5,0.2-1,0.5-1.4,0.2c-13.1-4.8-25.6-11.9-35.8-21.3c-7.2,0.5-14.3,1.4-20.3,3.6
				c-1.2,0.5-2.6-0.2-3.1-1.7c-0.5-1.2,0.2-2.6,1.7-3.1c5-1.7,11-2.9,17-3.3c-5.5-5.5-10-11.5-14.1-18.2
				c-4.3-7.2-7.6-15.3-11.7-22.7c-12.2,1.4-24.1,3.3-36.3,5.7c-15.3,2.9-30.6,6.2-45.6,10.3c1.2,9.1-0.7,18.4-2.4,27.2
				c-0.5,2.6-1,5.5-1.7,8.1c0.2,0,0.7,0,1,0c1.2-0.2,2.4-0.5,3.6-0.5c0.7,0,3.6-0.5,4.3-0.5c6-0.5,11.7-0.5,17,0.2
				c1.4,0.2,2.4,1.4,2.2,2.9c-0.2,1.4-1.4,2.4-2.9,2.2c-7.2-1-15.3-0.7-23.4,0.5c-1,0-1.9,0.2-3.1,0.5c-4.1,16-11,32.3-25.1,41.1
				c-0.7,0.5-1.9,0.2-2.2-0.5c-0.5-0.7-0.2-1.7,0.5-2.2c13.1-7.9,19.4-22.9,23.4-37.5c-2.9,0.7-5.5,1.4-8.1,2.2l-1.7,0.7
				c-5.5,15.1-12.7,30.1-21.7,40.1c2.2,17.7,13.6,47.3,26.3,63.3c17,21.5,42.1,28.4,54.2,30.6c9.1,1.7,14.3,3.8,23.2,3.1
				c9.6-0.7,18.4-4.5,21.5-5.3c0.2,0,0.2,0,0.5-0.2c0.2-0.2,0.2,0,0.5-0.2c42.5-12.4,65.5-40.4,70.3-73.6
				C354.5,286.1,354.5,285.8,354.5,285.8z M166,311.2c-6.2-12.9-11-27.2-12.7-38.2c-0.5,0-1-0.2-1.4-0.5c-5-3.6-10-3.1-14.1-0.2
				c-0.2,0.5-0.7,0.7-1,1c-1,1-1.7,1.7-2.6,2.6c-4.1,5.5-5.7,13.4-2.6,20.6c2.2,4.8,6.5,9.1,13.6,11.9
				C149.9,310,160.9,312.4,166,311.2L166,311.2z M139.7,290.4c1.9,0.7,3.6,2.4,5,3.6c3.3,2.4,6.7,3.8,10.8,4.8
				c1.4,0.2,2.6-0.5,3.1-1.9c0.2-1.4-0.5-2.6-1.9-3.1c-3.3-0.7-6.2-1.9-8.8-3.8c-1.9-1.4-4.1-3.3-6.5-4.1c-1.2-0.5-2.6,0.2-3.3,1.4
				C137.5,288.5,138.2,289.9,139.7,290.4z M360.2,279.4c4.8-0.2,10.3-2.9,13.9-5c6.5-4.1,10-9.1,11.2-14.3
				c1.9-7.4-1.2-15.1-6.2-19.6c-5.3-4.8-12.7-6.2-18.2-0.2c-1,1-2.2,1-3.3,0.5c1.2,6.5,2.2,13.6,2.6,21.3l0,0
				c3.1-1.4,5.7-3.1,8.1-5.5c1.7-1.7,3.3-3.8,5.5-5.3c1.2-0.7,2.6-0.2,3.6,1c0.7,1.2,0.2,2.9-1,3.6c-1.7,1-3.1,2.9-4.5,4.3
				c-2.9,2.9-6,5-9.6,6.7c-0.7,0.2-1.4,0.2-1.9,0C360.7,270.8,360.7,275.1,360.2,279.4z M185.1,187.6c-2.2,0.5-4.1,1.2-6.2,1.9
				c-4.1,1.2-7.9,2.4-11.7,3.8c-0.2,0.2-6,2.4-6,2.2c-4.8,1.7-9.3,3.6-14.1,5.5c-4.5,1.9-11.7,6-18.2,8.6c-0.2,0-0.2,0-0.5,0.2
				c-1,7.2-1.2,14.3-0.5,21.3c8.4-4.1,17.7-13.4,20.1-22c0.2-1,1.2-1.4,1.9-1.2c1,0.2,1.4,1.2,1,1.9c-2.9,9.6-13.4,20.3-22.9,24.4
				c1.2,10.3,4.3,20.8,8.6,32.3c2.2-1.2,4.5-1.9,6.9-2.2c5.5-11,10-23.4,11-35.8c0-1,1-1.7,1.7-1.4c1,0,1.7,1,1.4,1.7
				c-0.7,12.4-5.3,24.9-10.8,35.8c1.7,0.2,3.6,1,5.3,1.9c8.6-8.6,15.8-22.2,21-36.1l0,0c-2.4,1.2-5,2.4-7.6,4.1
				c-1.7,1-3.1,1.9-4.3,3.1c-1,1-2.6,1-3.6,0c-0.5-0.5-0.7-1-0.7-1.4c0-0.2,0-1,0.2-1.4c0-0.2,0.2-0.5,0.5-0.5
				c1.4-1.4,3.1-2.6,5.3-3.8c2.6-1.7,5.5-3.1,8.1-4.3c1.4-0.7,2.9-1.4,4.5-1.9c3.3-9.6,5.7-19.1,7.2-27.2
				C183.9,194.1,184.8,190.7,185.1,187.6z M370,167.6c-2.6-0.5-4.8-0.7-5.3-0.7c-9.1-1.4-18.2-2.2-27-2.2c-0.7,0-1.4,0-2.2,0
				c0,0-2.4,0-4.3,0c8.4,6.2,17.2,10.8,27.7,13.9c1,0.2,1.4,1.2,1.2,1.9c-0.2,1-1.2,1.4-1.9,1c-11.9-3.3-22.5-8.8-31.8-16.7
				c-5.3,0.2-10.5,0.5-16,0.7c-5.7,0.5-11.7,1-17.4,1.4c2.2,5.5,5.7,10.8,9.1,15.3c7.4,10.5,16.3,19.6,26,27.2
				c3.6,0.5,7.2,1.2,10.3,2.2c2.6,0.7,5.7,1.7,8.6,2.6c2.2,1,4.1,1.9,5.7,2.9c1.2,0.7,1.4,2.4,0.7,3.6c-0.7,1.2-2.4,1.4-3.3,0.7
				c-1.4-1-3.1-1.7-4.8-2.4c-2.4-1-6.7-2.2-8.8-2.6c5.7,7.2,12.7,13.9,22.5,17.9c0.5,0.2,0.7,0.5,1,0.7c2.9-2.4,6.2-3.3,9.3-3.6
				c0,0,0.2-1.9,0.2-2.2c-2.2-0.2-3.8-9.1-8.4-12.4c-6.9-5.5-11.7-8.8-15.8-14.3c-0.5-0.7-0.5-1.7,0.2-2.2c0.7-0.5,1.7-0.2,2.2,0.5
				c3.8,5.3,8.4,8.4,15.1,13.6c4.1,3.1,6.7,11.7,6.7,11.7s0.2-1.4,0.2-2.2C371.7,205.6,377.7,184,370,167.6z M341.6,229.4
				c0,0-0.5-0.5-0.7-0.7c-4.5-4.5-8.4-9.8-14.6-14.6c-3.6-0.5-7.2-0.5-10.8-0.5c7.4,6.2,15.8,11.2,24.6,15.3
				C340.6,229,341.6,229.4,341.6,229.4z M195.1,184.8c-1.7,0.5-3.6,1-5.3,1.4c0,3.8-1.2,8.1-1.9,11.7c-1.4,7.2-3.6,15.5-6.2,24.1
				c2.9-1,6-1.7,9.1-2.4c0.7-3.3,1.4-6.5,1.9-9.3C194.4,202.2,196.1,193.4,195.1,184.8z M288.1,167.3c-1.4,0.2-2.9,0.2-4.3,0.5
				c3.8,7.2,6.9,14.6,11,21.5c4.3,7.2,9.6,13.6,15.5,19.6c1.2,0,2.4,0,3.3-0.2c2.2,0,4.1,0,6.2,0c-8.1-6.9-15.3-14.8-21.5-23.7
				C294.3,179.5,290.2,173.5,288.1,167.3z M284.2,162.8c1,0,10.3-1,11.7-1.2c4.8-0.5,9.3-0.7,14.1-1.2c9.3-0.7,18.6-1,27.7-1
				c9.3,0.2,18.4,1,27.7,2.4c1.7,0.2,9.1,1.9,12.9,1.9c0.2-4.3-0.7-13.9-0.7-15.3c-0.5-7.6,0-12.9-1.7-16.3
				c-0.7-1.4-1.9-2.4-3.8-3.1c-2.2-1-5.3-1.4-9.6-1.4c-4.5-0.2-9.1-0.2-13.4-0.2c-6.7,0-13.6,0-20.3,0c-14.1,0-28.2,0-42.5,0.2
				c-9.3,0.2-18.9,0.7-28,1.7c-14.1,1.2-34.9,5.3-56.4,10.3c-19.6,4.5-39.4,10-55.2,15.5c-6.7,2.4-12.4,4.8-17,7.2
				c-9.1,4.5-13.9,8.4-15.3,9.6c-2.9,2.6-3.6,4.8-3.3,7.2c0.5,4.3,3.6,8.8,5.3,14.3c0.5,1.4,2.4,10.3,4.3,13.4
				c1.9-0.2,4.3-1,6.7-1.9c6.5-2.6,13.6-6.7,17.9-8.6c5.3-2.2,10.5-4.3,16-6.2c5.5-1.9,10.8-3.8,16.3-5.5
				c21.5-6.2,43.5-11.7,65.5-15.8C256.8,166.4,270.4,164.2,284.2,162.8z M227.4-5.2c3.8,4.5,7.2,9.8,10,15.5c0.7,1.2,0.2,2.6-1,3.3
				c-1.2,0.7-2.6,0-3.3-1c-6.5-12.9-15.8-22.5-26.8-28.9c-11.2-6.2-24.1-9.3-38.7-9.1C114.6-24.8,82.6,5.3,69.9,39
				c-17,44.2-1,95.4,44.4,91.8c5-0.5,10.5-0.7,15.8-1.7c3.3-0.7,6.7-1.7,9.6-2.9h0.2c6.2-9.1,13.6-17.7,21.7-25.8c1-1,2.6-1,3.6,0
				c1,1,1,2.6,0,3.6c-8.4,8.4-15.8,17-22.2,26.3c-5.5,8.1-9.8,17-13.1,26.5c4.3-2.2,9.6-4.3,15.5-6.2c16-5.5,36.1-11,55.7-15.8
				c21.7-5,42.8-9.1,57.1-10.3c9.3-1,18.9-1.4,28.4-1.7c14.3-0.2,28.4-0.2,42.5-0.2c6.7,0,13.6,0,20.3,0c4.5,0,9.1,0,13.6,0.2
				c-0.2-1.2-0.2-2.6-0.5-3.8c0-0.5,0-0.7-0.2-1.2c-1.4,0-3.1,0-4.8,0c-8.4,0-17-1.9-24.9-5.5c-8.1-3.6-15.3-8.6-20.3-15.5
				c-0.7-1-0.5-2.6,0.5-3.3c1.2-1,2.6-0.7,3.6,0.5c4.5,6.2,11,10.8,18.4,14.1c7.2,3.1,15.3,4.8,22.9,5c28.7,0.5,46.6-12.4,53.8-31.3
				c7.4-18.6,4.5-42.8-7.4-64.8c-2.9-5.3-6-10.3-9.6-14.8s-7.9-8.6-12.9-11.5c-4.1-2.4-8.4-3.8-12.9-4.8c-4.5-1-9.6-1.2-14.1-1.2
				c-6.7,0-13.6,0.5-20.6,1.4c-6.7,1.2-13.4,2.9-19.6,5.7c-1.2,0.5-2.6,0-3.1-1.2c0,0,0,0-0.2-0.2c-8.4-12.9-20.1-20.3-33-22.5
				c-12.9-1.9-26.5,1.7-38.5,10.8c-3.1,2.4-6.5,5.5-9.1,9.1C228.8-10,227.6-7.6,227.4-5.2"/>
		</g>
	</g>
</g>
<path class="st14" d="M264.4,316c4.8-0.5,11.5-2.4,14.1-2.2c1.4,0,2.9,2.2,2.4,3.6c-0.5,2.2-2.9,7.2-5.7,9.1c-1,0.7-4.5,2.9-8.6,3.1
	c-4.5,0.5-9.8-1-11-1.4c-3.1-1.2-6.2-6-7.2-7.9c-0.7-1.2,0.5-3.6,1.9-3.8C252.7,315.7,259.6,316.4,264.4,316"/>
<path class="st14" d="M266.1,294.9c-0.7-5-7.4-7.6-7.9-0.2c-0.2,6.9,6.5,14.1,7.9,4.8V294.9"/>
<path class="st14" d="M331.8,277.2c6.5-0.5,11.9,2.4,12.4,6.7s-4.5,8.1-11,8.8c-6.5,0.7-11.9-2.4-12.2-6.7
	C320.6,281.8,325.3,278,331.8,277.2"/>
<path class="st14" d="M190.6,289.9c6.5-0.5,11.9,2.4,12.4,6.7c0.5,4.3-4.5,8.1-11,8.8c-6.5,0.5-11.9-2.4-12.2-6.7
	C179.3,294.4,184.1,290.6,190.6,289.9"/>
<path class="st22" d="M217.3,266.3c5,0,8.8,4.8,8.8,10.5c0,2.9-1,5.5-2.4,7.2c-1.7,2.2-4.1,3.3-6.5,3.3c-2.4,0-4.5-1-6-2.6
	c-1.9-1.9-2.9-4.8-2.9-7.9C208.3,271,212.3,266.3,217.3,266.3"/>
<path class="st22" d="M301.7,260.5c5,0,8.8,4.8,8.8,10.5s-4.1,10.5-8.8,10.5c-5,0-9.1-4.8-9.1-10.5
	C292.8,265.3,296.9,260.5,301.7,260.5"/>
<g>
	<g transform="translate(185.292404, 163.563969)">
	</g>
</g>
</svg>
